<svg width="215" height="22" viewBox="0 0 215 22" fill="none" xmlns="http://www.w3.org/2000/svg">
<path d="M20.8431 9.3186L20.8334 9.36715V9.39931L20.79 9.42098L20.7342 9.47543L17.3175 12.8088L17.1286 12.9931L17.1742 13.2531L18.0071 18.0005C18.0407 18.2069 17.9178 18.3679 17.7718 18.4167H17.7715H17.7713H17.771H17.7707H17.7705H17.7702H17.7699H17.7697H17.7694H17.7691H17.7689H17.7686H17.7683H17.7681H17.7678H17.7675H17.7673H17.767H17.7668H17.7665H17.7662H17.766H17.7657H17.7655H17.7652H17.7649H17.7647H17.7644H17.7642H17.7639H17.7637H17.7634H17.7631H17.7629H17.7626H17.7624H17.7621H17.7619H17.7616H17.7614H17.7611H17.7609H17.7606H17.7604H17.7601H17.7599H17.7596H17.7594H17.7591H17.7589H17.7586H17.7584H17.7581H17.7579H17.7576H17.7574H17.7571H17.7569H17.7566H17.7564H17.7561H17.7559H17.7557H17.7554H17.7552H17.7549H17.7547H17.7544H17.7542H17.7539H17.7537H17.7534H17.7532H17.753H17.7527H17.7525H17.7522H17.752H17.7517H17.7515H17.7512H17.751H17.7508H17.7505H17.7503H17.75H17.7498H17.7495H17.7493H17.749H17.7488H17.7486H17.7483H17.7481H17.7478H17.7476H17.7473H17.7471H17.7468H17.7466H17.7464H17.7461H17.7459H17.7456H17.7454H17.7451H17.7449H17.7446H17.7444H17.7441H17.7439H17.7437H17.7434H17.7432H17.7429H17.7427H17.7424H17.7422H17.7419H17.7417H17.7414H17.7412H17.7409H17.7407H17.7404H17.7402H17.7399H17.7397H17.7394H17.7392H17.7389H17.7387H17.7384H17.7382H17.7379H17.7377H17.7374H17.7372H17.7369H17.7366H17.7364H17.7361H17.7359H17.7356H17.7354H17.7351H17.7348H17.7346H17.7343H17.7341H17.7338H17.7336H17.7333H17.733H17.7328H17.7325H17.7322H17.732H17.7317H17.7315H17.7312H17.7309H17.7307H17.7304H17.7301H17.7299H17.7296H17.7293H17.729H17.7288H17.7285H17.7282H17.728H17.7277H17.7274H17.7271H17.7269H17.7266H17.7263H17.726H17.7258H17.7255H17.7252H17.7249H17.7246H17.7244H17.7241H17.7238H17.7235H17.7232H17.7229H17.7227H17.7224H17.7221H17.7218H17.7215H17.7212H17.7209H17.7206H17.7203H17.7201H17.7198H17.7195H17.7192H17.7189H17.7186H17.7183H17.718H17.7177H17.7174H17.7171H17.7168H17.7165H17.7162H17.7159H17.7156H17.7152H17.7149H17.7146H17.7143H17.714H17.7137H17.7134H17.7131H17.7128H17.7124H17.7121H17.7118H17.7115H17.7112H17.7108H17.7105H17.7102H17.7099H17.7095H17.7092H17.7089H17.7086H17.7082H17.7079H17.7076H17.7072H17.7069H17.7065H17.7062H17.7059H17.7055H17.7052H17.7048H17.7045H17.7042H17.7038H17.7035H17.7031H17.7028H17.7024H17.7021H17.7017H17.7014H17.701H17.7006H17.7003H17.6999H17.6996H17.6992H17.6988H17.6985H17.6981H17.6977H17.6974H17.697H17.6966H17.6962H17.6959H17.6955H17.6951H17.6947H17.6944H17.694H17.6936H17.6932H17.6928H17.6924H17.692H17.6917H17.6913H17.6909H17.6905H17.6901H17.6897H17.6893H17.6889H17.6885H17.6881H17.6877H17.6873H17.6868H17.6864H17.686H17.6856H17.6852H17.6848H17.6844H17.6839H17.6835H17.6831H17.6827H17.6822H17.6818H17.6814H17.6809H17.6805H17.6801H17.6796H17.6792H17.6788H17.6783H17.6779H17.6774H17.677H17.6765H17.6761H17.6756H17.6752H17.6747H17.6743H17.6738H17.6733H17.6729H17.6724H17.6719H17.6715H17.671H17.6705H17.6701H17.6696H17.6691H17.6686H17.6681H17.6677H17.6672H17.6667C17.6235 18.4167 17.59 18.4166 17.5591 18.4156C17.5464 18.4152 17.5357 18.4147 17.5267 18.4141L17.484 18.3914L13.234 16.1414L13 16.0176L12.7661 16.1414L8.51608 18.3914L8.50425 18.3977L8.49277 18.4046C8.35374 18.488 8.15501 18.4627 8.02368 18.2613C8.00753 18.2218 8.00123 18.1709 8.00018 18.0426L8.82583 13.3364L8.87144 13.0764L8.68252 12.8921L5.26847 9.56132C5.13217 9.42345 5.13276 9.24102 5.27024 9.10354L5.32761 9.04617L5.34825 9.0049C5.36254 9.00242 5.38469 8.99999 5.41669 8.99999H5.4516L5.48618 8.99514L10.2362 8.32847L10.5013 8.29126L10.6173 8.04997L12.6891 3.74061C12.8204 3.53747 13.02 3.51172 13.1594 3.5954L13.1759 3.60528L13.1931 3.61387C13.2456 3.64011 13.2586 3.65316 13.261 3.65554L13.2611 3.65563L13.2611 3.65571C13.2635 3.65808 13.2766 3.6711 13.3028 3.7236L13.7474 3.50131L13.3028 3.7236L15.4695 8.05693L15.587 8.29195L15.8472 8.32847L20.5972 8.99514L20.6318 8.99999H20.6667C20.6672 8.99999 20.7181 9.00405 20.779 9.09041C20.8394 9.17597 20.8532 9.2677 20.8431 9.3186Z" fill="#FFD369" stroke="#FFD369"/>
<path d="M43.0097 9.4769L43 9.52544V9.52844L42.9817 9.53761L42.9258 9.59206L39.8508 12.5921L39.6619 12.7764L39.7075 13.0364L40.4571 17.3088C40.4824 17.4655 40.392 17.5857 40.2861 17.625H40.2859H40.2857H40.2854H40.2852H40.285H40.2848H40.2845H40.2843H40.2841H40.2839H40.2836H40.2834H40.2832H40.283H40.2827H40.2825H40.2823H40.2821H40.2818H40.2816H40.2814H40.2812H40.281H40.2807H40.2805H40.2803H40.2801H40.2798H40.2796H40.2794H40.2792H40.279H40.2787H40.2785H40.2783H40.2781H40.2779H40.2776H40.2774H40.2772H40.277H40.2768H40.2765H40.2763H40.2761H40.2759H40.2757H40.2754H40.2752H40.275H40.2748H40.2746H40.2743H40.2741H40.2739H40.2737H40.2735H40.2732H40.273H40.2728H40.2726H40.2724H40.2721H40.2719H40.2717H40.2715H40.2713H40.271H40.2708H40.2706H40.2704H40.2702H40.2699H40.2697H40.2695H40.2693H40.269H40.2688H40.2686H40.2684H40.2682H40.2679H40.2677H40.2675H40.2673H40.267H40.2668H40.2666H40.2664H40.2661H40.2659H40.2657H40.2655H40.2652H40.265H40.2648H40.2646H40.2643H40.2641H40.2639H40.2636H40.2634H40.2632H40.263H40.2627H40.2625H40.2623H40.262H40.2618H40.2616H40.2613H40.2611H40.2609H40.2606H40.2604H40.2602H40.2599H40.2597H40.2595H40.2592H40.259H40.2588H40.2585H40.2583H40.258H40.2578H40.2576H40.2573H40.2571H40.2568H40.2566H40.2564H40.2561H40.2559H40.2556H40.2554H40.2551H40.2549H40.2547H40.2544H40.2542H40.2539H40.2537H40.2534H40.2532H40.2529H40.2527H40.2524H40.2522H40.2519H40.2517H40.2514H40.2511H40.2509H40.2506H40.2504H40.2501H40.2499H40.2496H40.2493H40.2491H40.2488H40.2486H40.2483H40.248H40.2478H40.2475H40.2472H40.247H40.2467H40.2464H40.2462H40.2459H40.2456H40.2454H40.2451H40.2448H40.2445H40.2443H40.244H40.2437H40.2434H40.2431H40.2429H40.2426H40.2423H40.242H40.2417H40.2415H40.2412H40.2409H40.2406H40.2403H40.24H40.2397H40.2394H40.2392H40.2389H40.2386H40.2383H40.238H40.2377H40.2374H40.2371H40.2368H40.2365H40.2362H40.2359H40.2356H40.2353H40.235H40.2347H40.2343H40.234H40.2337H40.2334H40.2331H40.2328H40.2325H40.2322H40.2318H40.2315H40.2312H40.2309H40.2306H40.2302H40.2299H40.2296H40.2293H40.2289H40.2286H40.2283H40.2279H40.2276H40.2273H40.2269H40.2266H40.2263H40.2259H40.2256H40.2252H40.2249H40.2246H40.2242H40.2239H40.2235H40.2232H40.2228H40.2225H40.2221H40.2218H40.2214H40.221H40.2207H40.2203H40.22H40.2196H40.2192H40.2189H40.2185H40.2181H40.2178H40.2174H40.217H40.2167H40.2163H40.2159H40.2155H40.2151H40.2148H40.2144H40.214H40.2136H40.2132H40.2128H40.2124H40.212H40.2117H40.2113H40.2109H40.2105H40.2101H40.2097H40.2093H40.2089H40.2085H40.208H40.2076H40.2072H40.2068H40.2064H40.206H40.2056H40.2052H40.2047H40.2043H40.2039H40.2035H40.203H40.2026H40.2022H40.2017H40.2013H40.2009H40.2004H40.2C40.161 17.625 40.1317 17.6249 40.1048 17.624C40.0985 17.6238 40.0929 17.6236 40.0878 17.6233L40.0589 17.6081L36.2339 15.5831L36 15.4592L35.7661 15.5831L31.9411 17.6081L31.9292 17.6143L31.9178 17.6212C31.8546 17.6591 31.7944 17.6631 31.7374 17.646C31.6808 17.629 31.6165 17.5868 31.5658 17.5117C31.5564 17.486 31.5512 17.4472 31.5502 17.3424L32.2925 13.1114L32.3381 12.8514L32.1492 12.6671L29.0769 9.66969C28.9738 9.56521 28.9744 9.43268 29.0786 9.32851L29.1359 9.27113L29.1461 9.25089C29.1542 9.25032 29.1638 9.24995 29.175 9.24995H29.2099L29.2445 9.2451L33.5195 8.6451L33.7846 8.60789L33.9006 8.3666L35.7637 4.49139C35.8147 4.41431 35.88 4.3711 35.9374 4.35387C35.9944 4.33678 36.0546 4.34081 36.1178 4.3787L36.1342 4.38858L36.1514 4.39717C36.1847 4.41384 36.1968 4.42303 36.1996 4.42537C36.2019 4.42811 36.2111 4.4402 36.2278 4.47356L38.1778 8.37356L38.2953 8.60858L38.5555 8.6451L42.8305 9.2451L42.8651 9.24995H42.8948C42.9001 9.25171 42.9261 9.26184 42.9603 9.31017C42.9814 9.34007 42.997 9.37453 43.0052 9.4077C43.0134 9.44089 43.0122 9.46442 43.0097 9.4769Z" stroke="#FFD369"/>
<path d="M65.0097 9.4769L65 9.52544V9.52844L64.9817 9.53761L64.9258 9.59206L61.8508 12.5921L61.6619 12.7764L61.7075 13.0364L62.4571 17.3088C62.4824 17.4655 62.392 17.5857 62.2861 17.625H62.2859H62.2857H62.2854H62.2852H62.285H62.2848H62.2845H62.2843H62.2841H62.2839H62.2836H62.2834H62.2832H62.283H62.2827H62.2825H62.2823H62.2821H62.2818H62.2816H62.2814H62.2812H62.281H62.2807H62.2805H62.2803H62.2801H62.2798H62.2796H62.2794H62.2792H62.279H62.2787H62.2785H62.2783H62.2781H62.2779H62.2776H62.2774H62.2772H62.277H62.2768H62.2765H62.2763H62.2761H62.2759H62.2757H62.2754H62.2752H62.275H62.2748H62.2746H62.2743H62.2741H62.2739H62.2737H62.2735H62.2732H62.273H62.2728H62.2726H62.2724H62.2721H62.2719H62.2717H62.2715H62.2713H62.271H62.2708H62.2706H62.2704H62.2702H62.2699H62.2697H62.2695H62.2693H62.269H62.2688H62.2686H62.2684H62.2682H62.2679H62.2677H62.2675H62.2673H62.267H62.2668H62.2666H62.2664H62.2661H62.2659H62.2657H62.2655H62.2652H62.265H62.2648H62.2646H62.2643H62.2641H62.2639H62.2636H62.2634H62.2632H62.263H62.2627H62.2625H62.2623H62.262H62.2618H62.2616H62.2613H62.2611H62.2609H62.2606H62.2604H62.2602H62.2599H62.2597H62.2595H62.2592H62.259H62.2588H62.2585H62.2583H62.258H62.2578H62.2576H62.2573H62.2571H62.2568H62.2566H62.2564H62.2561H62.2559H62.2556H62.2554H62.2551H62.2549H62.2547H62.2544H62.2542H62.2539H62.2537H62.2534H62.2532H62.2529H62.2527H62.2524H62.2522H62.2519H62.2517H62.2514H62.2511H62.2509H62.2506H62.2504H62.2501H62.2499H62.2496H62.2493H62.2491H62.2488H62.2486H62.2483H62.248H62.2478H62.2475H62.2472H62.247H62.2467H62.2464H62.2462H62.2459H62.2456H62.2454H62.2451H62.2448H62.2445H62.2443H62.244H62.2437H62.2434H62.2431H62.2429H62.2426H62.2423H62.242H62.2417H62.2415H62.2412H62.2409H62.2406H62.2403H62.24H62.2397H62.2394H62.2392H62.2389H62.2386H62.2383H62.238H62.2377H62.2374H62.2371H62.2368H62.2365H62.2362H62.2359H62.2356H62.2353H62.235H62.2347H62.2343H62.234H62.2337H62.2334H62.2331H62.2328H62.2325H62.2322H62.2318H62.2315H62.2312H62.2309H62.2306H62.2302H62.2299H62.2296H62.2293H62.2289H62.2286H62.2283H62.2279H62.2276H62.2273H62.2269H62.2266H62.2263H62.2259H62.2256H62.2252H62.2249H62.2246H62.2242H62.2239H62.2235H62.2232H62.2228H62.2225H62.2221H62.2218H62.2214H62.221H62.2207H62.2203H62.22H62.2196H62.2192H62.2189H62.2185H62.2181H62.2178H62.2174H62.217H62.2167H62.2163H62.2159H62.2155H62.2151H62.2148H62.2144H62.214H62.2136H62.2132H62.2128H62.2124H62.212H62.2117H62.2113H62.2109H62.2105H62.2101H62.2097H62.2093H62.2089H62.2085H62.208H62.2076H62.2072H62.2068H62.2064H62.206H62.2056H62.2052H62.2047H62.2043H62.2039H62.2035H62.203H62.2026H62.2022H62.2017H62.2013H62.2009H62.2004H62.2C62.161 17.625 62.1317 17.6249 62.1048 17.624C62.0985 17.6238 62.0929 17.6236 62.0878 17.6233L62.0589 17.6081L58.2339 15.5831L58 15.4592L57.7661 15.5831L53.9411 17.6081L53.9292 17.6143L53.9178 17.6212C53.8546 17.6591 53.7944 17.6631 53.7374 17.646C53.6808 17.629 53.6165 17.5868 53.5658 17.5117C53.5564 17.486 53.5512 17.4472 53.5502 17.3424L54.2925 13.1114L54.3381 12.8514L54.1492 12.6671L51.0769 9.66969C50.9738 9.56521 50.9744 9.43268 51.0786 9.32851L51.1359 9.27113L51.1461 9.25089C51.1542 9.25032 51.1638 9.24995 51.175 9.24995H51.2099L51.2445 9.2451L55.5195 8.6451L55.7846 8.60789L55.9006 8.3666L57.7637 4.49139C57.8147 4.41431 57.88 4.3711 57.9374 4.35387C57.9944 4.33678 58.0546 4.34081 58.1178 4.3787L58.1342 4.38858L58.1514 4.39717C58.1847 4.41384 58.1968 4.42303 58.1996 4.42537C58.2019 4.42811 58.2111 4.4402 58.2278 4.47356L60.1778 8.37356L60.2953 8.60858L60.5555 8.6451L64.8305 9.2451L64.8651 9.24995H64.8948C64.9001 9.25171 64.9261 9.26184 64.9603 9.31017C64.9814 9.34007 64.997 9.37453 65.0052 9.4077C65.0134 9.44089 65.0122 9.46442 65.0097 9.4769Z" stroke="#FFD369"/>
<path d="M87.0097 9.4769L87 9.52544V9.52844L86.9817 9.53761L86.9258 9.59206L83.8508 12.5921L83.6619 12.7764L83.7075 13.0364L84.4571 17.3088C84.4824 17.4655 84.392 17.5857 84.2861 17.625H84.2859H84.2857H84.2854H84.2852H84.285H84.2848H84.2845H84.2843H84.2841H84.2839H84.2836H84.2834H84.2832H84.283H84.2827H84.2825H84.2823H84.2821H84.2818H84.2816H84.2814H84.2812H84.281H84.2807H84.2805H84.2803H84.2801H84.2798H84.2796H84.2794H84.2792H84.279H84.2787H84.2785H84.2783H84.2781H84.2779H84.2776H84.2774H84.2772H84.277H84.2768H84.2765H84.2763H84.2761H84.2759H84.2757H84.2754H84.2752H84.275H84.2748H84.2746H84.2743H84.2741H84.2739H84.2737H84.2735H84.2732H84.273H84.2728H84.2726H84.2724H84.2721H84.2719H84.2717H84.2715H84.2713H84.271H84.2708H84.2706H84.2704H84.2702H84.2699H84.2697H84.2695H84.2693H84.269H84.2688H84.2686H84.2684H84.2682H84.2679H84.2677H84.2675H84.2673H84.267H84.2668H84.2666H84.2664H84.2661H84.2659H84.2657H84.2655H84.2652H84.265H84.2648H84.2646H84.2643H84.2641H84.2639H84.2636H84.2634H84.2632H84.263H84.2627H84.2625H84.2623H84.262H84.2618H84.2616H84.2613H84.2611H84.2609H84.2606H84.2604H84.2602H84.2599H84.2597H84.2595H84.2592H84.259H84.2588H84.2585H84.2583H84.258H84.2578H84.2576H84.2573H84.2571H84.2568H84.2566H84.2564H84.2561H84.2559H84.2556H84.2554H84.2551H84.2549H84.2547H84.2544H84.2542H84.2539H84.2537H84.2534H84.2532H84.2529H84.2527H84.2524H84.2522H84.2519H84.2517H84.2514H84.2511H84.2509H84.2506H84.2504H84.2501H84.2499H84.2496H84.2493H84.2491H84.2488H84.2486H84.2483H84.248H84.2478H84.2475H84.2472H84.247H84.2467H84.2464H84.2462H84.2459H84.2456H84.2454H84.2451H84.2448H84.2445H84.2443H84.244H84.2437H84.2434H84.2431H84.2429H84.2426H84.2423H84.242H84.2417H84.2415H84.2412H84.2409H84.2406H84.2403H84.24H84.2397H84.2394H84.2392H84.2389H84.2386H84.2383H84.238H84.2377H84.2374H84.2371H84.2368H84.2365H84.2362H84.2359H84.2356H84.2353H84.235H84.2347H84.2343H84.234H84.2337H84.2334H84.2331H84.2328H84.2325H84.2322H84.2318H84.2315H84.2312H84.2309H84.2306H84.2302H84.2299H84.2296H84.2293H84.2289H84.2286H84.2283H84.2279H84.2276H84.2273H84.2269H84.2266H84.2263H84.2259H84.2256H84.2252H84.2249H84.2246H84.2242H84.2239H84.2235H84.2232H84.2228H84.2225H84.2221H84.2218H84.2214H84.221H84.2207H84.2203H84.22H84.2196H84.2192H84.2189H84.2185H84.2181H84.2178H84.2174H84.217H84.2167H84.2163H84.2159H84.2155H84.2151H84.2148H84.2144H84.214H84.2136H84.2132H84.2128H84.2124H84.212H84.2117H84.2113H84.2109H84.2105H84.2101H84.2097H84.2093H84.2089H84.2085H84.208H84.2076H84.2072H84.2068H84.2064H84.206H84.2056H84.2052H84.2047H84.2043H84.2039H84.2035H84.203H84.2026H84.2022H84.2017H84.2013H84.2009H84.2004H84.2C84.161 17.625 84.1317 17.6249 84.1048 17.624C84.0985 17.6238 84.0929 17.6236 84.0878 17.6233L84.0589 17.6081L80.2339 15.5831L80 15.4592L79.7661 15.5831L75.9411 17.6081L75.9292 17.6143L75.9178 17.6212C75.8546 17.6591 75.7944 17.6631 75.7374 17.646C75.6808 17.629 75.6165 17.5868 75.5658 17.5117C75.5564 17.486 75.5512 17.4472 75.5502 17.3424L76.2925 13.1114L76.3381 12.8514L76.1492 12.6671L73.0769 9.66969C72.9738 9.56521 72.9744 9.43268 73.0786 9.32851L73.1359 9.27113L73.1461 9.25089C73.1542 9.25032 73.1638 9.24995 73.175 9.24995H73.2099L73.2445 9.2451L77.5195 8.6451L77.7846 8.60789L77.9006 8.3666L79.7637 4.49139C79.8147 4.41431 79.88 4.3711 79.9374 4.35387C79.9944 4.33678 80.0546 4.34081 80.1178 4.3787L80.1342 4.38858L80.1514 4.39717C80.1847 4.41384 80.1968 4.42303 80.1996 4.42537C80.2019 4.42811 80.2111 4.4402 80.2278 4.47356L82.1778 8.37356L82.2953 8.60858L82.5555 8.6451L86.8305 9.2451L86.8651 9.24995H86.8948C86.9001 9.25171 86.9261 9.26184 86.9603 9.31017C86.9814 9.34007 86.997 9.37453 87.0052 9.4077C87.0134 9.44089 87.0122 9.46442 87.0097 9.4769Z" stroke="#FFD369"/>
<path d="M109.01 9.4769L109 9.52544V9.52844L108.982 9.53761L108.926 9.59206L105.851 12.5921L105.662 12.7764L105.708 13.0364L106.457 17.3088C106.482 17.4655 106.392 17.5857 106.286 17.625H106.286H106.286H106.285H106.285H106.285H106.285H106.285H106.284H106.284H106.284H106.284H106.283H106.283H106.283H106.283H106.283H106.282H106.282H106.282H106.282H106.281H106.281H106.281H106.281H106.281H106.28H106.28H106.28H106.28H106.279H106.279H106.279H106.279H106.279H106.278H106.278H106.278H106.278H106.277H106.277H106.277H106.277H106.277H106.276H106.276H106.276H106.276H106.275H106.275H106.275H106.275H106.275H106.274H106.274H106.274H106.274H106.273H106.273H106.273H106.273H106.273H106.272H106.272H106.272H106.272H106.271H106.271H106.271H106.271H106.271H106.27H106.27H106.27H106.27H106.269H106.269H106.269H106.269H106.269H106.268H106.268H106.268H106.268H106.267H106.267H106.267H106.267H106.267H106.266H106.266H106.266H106.266H106.265H106.265H106.265H106.265H106.265H106.264H106.264H106.264H106.264H106.263H106.263H106.263H106.263H106.262H106.262H106.262H106.262H106.262H106.261H106.261H106.261H106.261H106.26H106.26H106.26H106.26H106.259H106.259H106.259H106.259H106.259H106.258H106.258H106.258H106.258H106.257H106.257H106.257H106.257H106.256H106.256H106.256H106.256H106.255H106.255H106.255H106.255H106.254H106.254H106.254H106.254H106.253H106.253H106.253H106.253H106.252H106.252H106.252H106.252H106.251H106.251H106.251H106.251H106.25H106.25H106.25H106.25H106.249H106.249H106.249H106.249H106.248H106.248H106.248H106.248H106.247H106.247H106.247H106.246H106.246H106.246H106.246H106.245H106.245H106.245H106.245H106.244H106.244H106.244H106.243H106.243H106.243H106.243H106.242H106.242H106.242H106.241H106.241H106.241H106.241H106.24H106.24H106.24H106.239H106.239H106.239H106.239H106.238H106.238H106.238H106.237H106.237H106.237H106.236H106.236H106.236H106.236H106.235H106.235H106.235H106.234H106.234H106.234H106.233H106.233H106.233H106.232H106.232H106.232H106.232H106.231H106.231H106.231H106.23H106.23H106.23H106.229H106.229H106.229H106.228H106.228H106.228H106.227H106.227H106.227H106.226H106.226H106.226H106.225H106.225H106.225H106.224H106.224H106.224H106.223H106.223H106.222H106.222H106.222H106.221H106.221H106.221H106.22H106.22H106.22H106.219H106.219H106.219H106.218H106.218H106.217H106.217H106.217H106.216H106.216H106.216H106.215H106.215H106.214H106.214H106.214H106.213H106.213H106.212H106.212H106.212H106.211H106.211H106.21H106.21H106.21H106.209H106.209H106.208H106.208H106.208H106.207H106.207H106.206H106.206H106.206H106.205H106.205H106.204H106.204H106.203H106.203H106.203H106.202H106.202H106.201H106.201H106.2H106.2C106.161 17.625 106.132 17.6249 106.105 17.624C106.099 17.6238 106.093 17.6236 106.088 17.6233L106.059 17.6081L102.234 15.5831L102 15.4592L101.766 15.5831L97.9411 17.6081L97.9292 17.6143L97.9178 17.6212C97.8546 17.6591 97.7944 17.6631 97.7374 17.646C97.6808 17.629 97.6165 17.5868 97.5658 17.5117C97.5564 17.486 97.5512 17.4472 97.5502 17.3424L98.2925 13.1114L98.3381 12.8514L98.1492 12.6671L95.0769 9.66969C94.9738 9.56521 94.9744 9.43268 95.0786 9.32851L95.1359 9.27113L95.1461 9.25089C95.1542 9.25032 95.1638 9.24995 95.175 9.24995H95.2099L95.2445 9.2451L99.5195 8.6451L99.7846 8.60789L99.9006 8.3666L101.764 4.49139C101.815 4.41431 101.88 4.3711 101.937 4.35387C101.994 4.33678 102.055 4.34081 102.118 4.3787L102.134 4.38858L102.151 4.39717C102.185 4.41384 102.197 4.42303 102.2 4.42537C102.202 4.42811 102.211 4.4402 102.228 4.47356L104.178 8.37356L104.295 8.60858L104.556 8.6451L108.831 9.2451L108.865 9.24995H108.895C108.9 9.25171 108.926 9.26184 108.96 9.31017C108.981 9.34007 108.997 9.37453 109.005 9.4077C109.013 9.44089 109.012 9.46442 109.01 9.4769Z" stroke="#FFD369"/>
<path d="M123.568 16L122.294 14.712C121.818 15.2067 121.309 15.5753 120.768 15.818C120.227 16.0513 119.615 16.168 118.934 16.168C118.262 16.168 117.665 16.0467 117.142 15.804C116.629 15.5613 116.227 15.216 115.938 14.768C115.658 14.32 115.518 13.7973 115.518 13.2C115.518 12.5187 115.709 11.9213 116.092 11.408C116.484 10.8853 117.058 10.4747 117.814 10.176C117.515 9.82133 117.301 9.49467 117.17 9.196C117.039 8.89733 116.974 8.57067 116.974 8.216C116.974 7.80533 117.077 7.43667 117.282 7.11C117.497 6.774 117.8 6.51267 118.192 6.326C118.584 6.13933 119.037 6.046 119.55 6.046C120.054 6.046 120.493 6.144 120.866 6.34C121.239 6.536 121.519 6.81133 121.706 7.166C121.893 7.51133 121.977 7.89867 121.958 8.328H120.684C120.693 7.94533 120.586 7.64667 120.362 7.432C120.138 7.208 119.849 7.096 119.494 7.096C119.121 7.096 118.817 7.20333 118.584 7.418C118.36 7.62333 118.248 7.88933 118.248 8.216C118.248 8.496 118.323 8.76667 118.472 9.028C118.631 9.28933 118.892 9.61133 119.256 9.994L122.168 12.92L122.42 12.528L123.372 10.932H124.744L123.596 12.92C123.437 13.2 123.251 13.494 123.036 13.802L125.234 16H123.568ZM118.934 15.076C119.438 15.076 119.891 14.978 120.292 14.782C120.703 14.586 121.09 14.2827 121.454 13.872L118.584 10.988C117.389 11.4453 116.792 12.1687 116.792 13.158C116.792 13.7087 116.988 14.166 117.38 14.53C117.781 14.894 118.299 15.076 118.934 15.076ZM131.406 6.242V12.416C131.406 13.284 131.616 13.928 132.036 14.348C132.465 14.768 133.058 14.978 133.814 14.978C134.561 14.978 135.144 14.768 135.564 14.348C135.993 13.928 136.208 13.284 136.208 12.416V6.242H137.482V12.402C137.482 13.214 137.319 13.9 136.992 14.46C136.665 15.0107 136.222 15.4213 135.662 15.692C135.111 15.9627 134.491 16.098 133.8 16.098C133.109 16.098 132.484 15.9627 131.924 15.692C131.373 15.4213 130.935 15.0107 130.608 14.46C130.291 13.9 130.132 13.214 130.132 12.402V6.242H131.406ZM140.881 9.742C141.133 9.30333 141.507 8.93933 142.001 8.65C142.505 8.35133 143.089 8.202 143.751 8.202C144.433 8.202 145.049 8.36533 145.599 8.692C146.159 9.01867 146.598 9.48067 146.915 10.078C147.233 10.666 147.391 11.352 147.391 12.136C147.391 12.9107 147.233 13.6013 146.915 14.208C146.598 14.8147 146.159 15.286 145.599 15.622C145.049 15.958 144.433 16.126 143.751 16.126C143.098 16.126 142.519 15.9813 142.015 15.692C141.521 15.3933 141.143 15.0247 140.881 14.586V19.64H139.607V8.328H140.881V9.742ZM146.089 12.136C146.089 11.5573 145.973 11.0533 145.739 10.624C145.506 10.1947 145.189 9.868 144.787 9.644C144.395 9.42 143.961 9.308 143.485 9.308C143.019 9.308 142.585 9.42467 142.183 9.658C141.791 9.882 141.474 10.2133 141.231 10.652C140.998 11.0813 140.881 11.5807 140.881 12.15C140.881 12.7287 140.998 13.2373 141.231 13.676C141.474 14.1053 141.791 14.4367 142.183 14.67C142.585 14.894 143.019 15.006 143.485 15.006C143.961 15.006 144.395 14.894 144.787 14.67C145.189 14.4367 145.506 14.1053 145.739 13.676C145.973 13.2373 146.089 12.724 146.089 12.136Z" fill="#06D6A0"/>
</svg>
