<svg width="215" height="22" viewBox="0 0 215 22" fill="none" xmlns="http://www.w3.org/2000/svg">
<path d="M19.8431 9.3186L19.8334 9.36715V9.39931L19.79 9.42098L19.7342 9.47543L16.3175 12.8088L16.1286 12.9931L16.1742 13.2531L17.0071 18.0005C17.0407 18.2069 16.9178 18.3679 16.7718 18.4167H16.7715H16.7713H16.771H16.7707H16.7705H16.7702H16.7699H16.7697H16.7694H16.7691H16.7689H16.7686H16.7683H16.7681H16.7678H16.7675H16.7673H16.767H16.7668H16.7665H16.7662H16.766H16.7657H16.7655H16.7652H16.7649H16.7647H16.7644H16.7642H16.7639H16.7637H16.7634H16.7631H16.7629H16.7626H16.7624H16.7621H16.7619H16.7616H16.7614H16.7611H16.7609H16.7606H16.7604H16.7601H16.7599H16.7596H16.7594H16.7591H16.7589H16.7586H16.7584H16.7581H16.7579H16.7576H16.7574H16.7571H16.7569H16.7566H16.7564H16.7561H16.7559H16.7557H16.7554H16.7552H16.7549H16.7547H16.7544H16.7542H16.7539H16.7537H16.7534H16.7532H16.753H16.7527H16.7525H16.7522H16.752H16.7517H16.7515H16.7512H16.751H16.7508H16.7505H16.7503H16.75H16.7498H16.7495H16.7493H16.749H16.7488H16.7486H16.7483H16.7481H16.7478H16.7476H16.7473H16.7471H16.7468H16.7466H16.7464H16.7461H16.7459H16.7456H16.7454H16.7451H16.7449H16.7446H16.7444H16.7441H16.7439H16.7437H16.7434H16.7432H16.7429H16.7427H16.7424H16.7422H16.7419H16.7417H16.7414H16.7412H16.7409H16.7407H16.7404H16.7402H16.7399H16.7397H16.7394H16.7392H16.7389H16.7387H16.7384H16.7382H16.7379H16.7377H16.7374H16.7372H16.7369H16.7366H16.7364H16.7361H16.7359H16.7356H16.7354H16.7351H16.7348H16.7346H16.7343H16.7341H16.7338H16.7336H16.7333H16.733H16.7328H16.7325H16.7322H16.732H16.7317H16.7315H16.7312H16.7309H16.7307H16.7304H16.7301H16.7299H16.7296H16.7293H16.729H16.7288H16.7285H16.7282H16.728H16.7277H16.7274H16.7271H16.7269H16.7266H16.7263H16.726H16.7258H16.7255H16.7252H16.7249H16.7246H16.7244H16.7241H16.7238H16.7235H16.7232H16.7229H16.7227H16.7224H16.7221H16.7218H16.7215H16.7212H16.7209H16.7206H16.7203H16.7201H16.7198H16.7195H16.7192H16.7189H16.7186H16.7183H16.718H16.7177H16.7174H16.7171H16.7168H16.7165H16.7162H16.7159H16.7156H16.7152H16.7149H16.7146H16.7143H16.714H16.7137H16.7134H16.7131H16.7128H16.7124H16.7121H16.7118H16.7115H16.7112H16.7108H16.7105H16.7102H16.7099H16.7095H16.7092H16.7089H16.7086H16.7082H16.7079H16.7076H16.7072H16.7069H16.7065H16.7062H16.7059H16.7055H16.7052H16.7048H16.7045H16.7042H16.7038H16.7035H16.7031H16.7028H16.7024H16.7021H16.7017H16.7014H16.701H16.7006H16.7003H16.6999H16.6996H16.6992H16.6988H16.6985H16.6981H16.6977H16.6974H16.697H16.6966H16.6962H16.6959H16.6955H16.6951H16.6947H16.6944H16.694H16.6936H16.6932H16.6928H16.6924H16.692H16.6917H16.6913H16.6909H16.6905H16.6901H16.6897H16.6893H16.6889H16.6885H16.6881H16.6877H16.6873H16.6868H16.6864H16.686H16.6856H16.6852H16.6848H16.6844H16.6839H16.6835H16.6831H16.6827H16.6822H16.6818H16.6814H16.6809H16.6805H16.6801H16.6796H16.6792H16.6788H16.6783H16.6779H16.6774H16.677H16.6765H16.6761H16.6756H16.6752H16.6747H16.6743H16.6738H16.6733H16.6729H16.6724H16.6719H16.6715H16.671H16.6705H16.6701H16.6696H16.6691H16.6686H16.6681H16.6677H16.6672H16.6667C16.6235 18.4167 16.59 18.4166 16.5591 18.4156C16.5464 18.4152 16.5357 18.4147 16.5267 18.4141L16.484 18.3914L12.234 16.1414L12 16.0176L11.7661 16.1414L7.51608 18.3914L7.50425 18.3977L7.49277 18.4046C7.35374 18.488 7.15501 18.4627 7.02368 18.2613C7.00753 18.2218 7.00123 18.1709 7.00018 18.0426L7.82583 13.3364L7.87144 13.0764L7.68252 12.8921L4.26847 9.56132C4.13217 9.42345 4.13276 9.24102 4.27024 9.10354L4.32761 9.04617L4.34825 9.0049C4.36254 9.00242 4.38469 8.99999 4.41669 8.99999H4.4516L4.48618 8.99514L9.23618 8.32847L9.50131 8.29126L9.61731 8.04997L11.6891 3.74061C11.8204 3.53747 12.02 3.51172 12.1594 3.5954L12.1759 3.60528L12.1931 3.61387C12.2456 3.64011 12.2586 3.65316 12.261 3.65554L12.2611 3.65563L12.2611 3.65571C12.2635 3.65808 12.2766 3.6711 12.3028 3.7236L12.7474 3.50131L12.3028 3.7236L14.4695 8.05693L14.587 8.29195L14.8472 8.32847L19.5972 8.99514L19.6318 8.99999H19.6667C19.6672 8.99999 19.7181 9.00405 19.779 9.09041C19.8394 9.17597 19.8532 9.2677 19.8431 9.3186Z" fill="#FFD369" stroke="#FFD369"/>
<path d="M43.8431 9.3186L43.8334 9.36715V9.39931L43.79 9.42098L43.7342 9.47543L40.3175 12.8088L40.1286 12.9931L40.1742 13.2531L41.0071 18.0005C41.0407 18.2069 40.9178 18.3679 40.7718 18.4167H40.7715H40.7713H40.771H40.7707H40.7705H40.7702H40.7699H40.7697H40.7694H40.7691H40.7689H40.7686H40.7683H40.7681H40.7678H40.7675H40.7673H40.767H40.7668H40.7665H40.7662H40.766H40.7657H40.7655H40.7652H40.7649H40.7647H40.7644H40.7642H40.7639H40.7637H40.7634H40.7631H40.7629H40.7626H40.7624H40.7621H40.7619H40.7616H40.7614H40.7611H40.7609H40.7606H40.7604H40.7601H40.7599H40.7596H40.7594H40.7591H40.7589H40.7586H40.7584H40.7581H40.7579H40.7576H40.7574H40.7571H40.7569H40.7566H40.7564H40.7561H40.7559H40.7557H40.7554H40.7552H40.7549H40.7547H40.7544H40.7542H40.7539H40.7537H40.7534H40.7532H40.753H40.7527H40.7525H40.7522H40.752H40.7517H40.7515H40.7512H40.751H40.7508H40.7505H40.7503H40.75H40.7498H40.7495H40.7493H40.749H40.7488H40.7486H40.7483H40.7481H40.7478H40.7476H40.7473H40.7471H40.7468H40.7466H40.7464H40.7461H40.7459H40.7456H40.7454H40.7451H40.7449H40.7446H40.7444H40.7441H40.7439H40.7437H40.7434H40.7432H40.7429H40.7427H40.7424H40.7422H40.7419H40.7417H40.7414H40.7412H40.7409H40.7407H40.7404H40.7402H40.7399H40.7397H40.7394H40.7392H40.7389H40.7387H40.7384H40.7382H40.7379H40.7377H40.7374H40.7372H40.7369H40.7366H40.7364H40.7361H40.7359H40.7356H40.7354H40.7351H40.7348H40.7346H40.7343H40.7341H40.7338H40.7336H40.7333H40.733H40.7328H40.7325H40.7322H40.732H40.7317H40.7315H40.7312H40.7309H40.7307H40.7304H40.7301H40.7299H40.7296H40.7293H40.729H40.7288H40.7285H40.7282H40.728H40.7277H40.7274H40.7271H40.7269H40.7266H40.7263H40.726H40.7258H40.7255H40.7252H40.7249H40.7246H40.7244H40.7241H40.7238H40.7235H40.7232H40.7229H40.7227H40.7224H40.7221H40.7218H40.7215H40.7212H40.7209H40.7206H40.7203H40.7201H40.7198H40.7195H40.7192H40.7189H40.7186H40.7183H40.718H40.7177H40.7174H40.7171H40.7168H40.7165H40.7162H40.7159H40.7156H40.7152H40.7149H40.7146H40.7143H40.714H40.7137H40.7134H40.7131H40.7128H40.7124H40.7121H40.7118H40.7115H40.7112H40.7108H40.7105H40.7102H40.7099H40.7095H40.7092H40.7089H40.7086H40.7082H40.7079H40.7076H40.7072H40.7069H40.7065H40.7062H40.7059H40.7055H40.7052H40.7048H40.7045H40.7042H40.7038H40.7035H40.7031H40.7028H40.7024H40.7021H40.7017H40.7014H40.701H40.7006H40.7003H40.6999H40.6996H40.6992H40.6988H40.6985H40.6981H40.6977H40.6974H40.697H40.6966H40.6962H40.6959H40.6955H40.6951H40.6947H40.6944H40.694H40.6936H40.6932H40.6928H40.6924H40.692H40.6917H40.6913H40.6909H40.6905H40.6901H40.6897H40.6893H40.6889H40.6885H40.6881H40.6877H40.6873H40.6868H40.6864H40.686H40.6856H40.6852H40.6848H40.6844H40.6839H40.6835H40.6831H40.6827H40.6822H40.6818H40.6814H40.6809H40.6805H40.6801H40.6796H40.6792H40.6788H40.6783H40.6779H40.6774H40.677H40.6765H40.6761H40.6756H40.6752H40.6747H40.6743H40.6738H40.6733H40.6729H40.6724H40.6719H40.6715H40.671H40.6705H40.6701H40.6696H40.6691H40.6686H40.6681H40.6677H40.6672H40.6667C40.6235 18.4167 40.59 18.4166 40.5591 18.4156C40.5464 18.4152 40.5357 18.4147 40.5267 18.4141L40.484 18.3914L36.234 16.1414L36 16.0176L35.7661 16.1414L31.5161 18.3914L31.5042 18.3977L31.4928 18.4046C31.3537 18.488 31.155 18.4627 31.0237 18.2613C31.0075 18.2218 31.0012 18.1709 31.0002 18.0426L31.8258 13.3364L31.8714 13.0764L31.6825 12.8921L28.2685 9.56132C28.1322 9.42345 28.1328 9.24102 28.2702 9.10354L28.3276 9.04617L28.3482 9.0049C28.3625 9.00242 28.3847 8.99999 28.4167 8.99999H28.4516L28.4862 8.99514L33.2362 8.32847L33.5013 8.29126L33.6173 8.04997L35.6891 3.74061C35.8204 3.53747 36.02 3.51172 36.1594 3.5954L36.1759 3.60528L36.1931 3.61387C36.2456 3.64011 36.2586 3.65316 36.261 3.65554L36.2611 3.65563L36.2611 3.65571C36.2635 3.65808 36.2766 3.6711 36.3028 3.7236L36.7474 3.50131L36.3028 3.7236L38.4695 8.05693L38.587 8.29195L38.8472 8.32847L43.5972 8.99514L43.6318 8.99999H43.6667C43.6672 8.99999 43.7181 9.00405 43.779 9.09041C43.8394 9.17597 43.8532 9.2677 43.8431 9.3186Z" fill="#FFD369" stroke="#FFD369"/>
<path d="M66.0097 9.4769L66 9.52544V9.52844L65.9817 9.53761L65.9258 9.59206L62.8508 12.5921L62.6619 12.7764L62.7075 13.0364L63.4571 17.3088C63.4824 17.4655 63.392 17.5857 63.2861 17.625H63.2859H63.2857H63.2854H63.2852H63.285H63.2848H63.2845H63.2843H63.2841H63.2839H63.2836H63.2834H63.2832H63.283H63.2827H63.2825H63.2823H63.2821H63.2818H63.2816H63.2814H63.2812H63.281H63.2807H63.2805H63.2803H63.2801H63.2798H63.2796H63.2794H63.2792H63.279H63.2787H63.2785H63.2783H63.2781H63.2779H63.2776H63.2774H63.2772H63.277H63.2768H63.2765H63.2763H63.2761H63.2759H63.2757H63.2754H63.2752H63.275H63.2748H63.2746H63.2743H63.2741H63.2739H63.2737H63.2735H63.2732H63.273H63.2728H63.2726H63.2724H63.2721H63.2719H63.2717H63.2715H63.2713H63.271H63.2708H63.2706H63.2704H63.2702H63.2699H63.2697H63.2695H63.2693H63.269H63.2688H63.2686H63.2684H63.2682H63.2679H63.2677H63.2675H63.2673H63.267H63.2668H63.2666H63.2664H63.2661H63.2659H63.2657H63.2655H63.2652H63.265H63.2648H63.2646H63.2643H63.2641H63.2639H63.2636H63.2634H63.2632H63.263H63.2627H63.2625H63.2623H63.262H63.2618H63.2616H63.2613H63.2611H63.2609H63.2606H63.2604H63.2602H63.2599H63.2597H63.2595H63.2592H63.259H63.2588H63.2585H63.2583H63.258H63.2578H63.2576H63.2573H63.2571H63.2568H63.2566H63.2564H63.2561H63.2559H63.2556H63.2554H63.2551H63.2549H63.2547H63.2544H63.2542H63.2539H63.2537H63.2534H63.2532H63.2529H63.2527H63.2524H63.2522H63.2519H63.2517H63.2514H63.2511H63.2509H63.2506H63.2504H63.2501H63.2499H63.2496H63.2493H63.2491H63.2488H63.2486H63.2483H63.248H63.2478H63.2475H63.2472H63.247H63.2467H63.2464H63.2462H63.2459H63.2456H63.2454H63.2451H63.2448H63.2445H63.2443H63.244H63.2437H63.2434H63.2431H63.2429H63.2426H63.2423H63.242H63.2417H63.2415H63.2412H63.2409H63.2406H63.2403H63.24H63.2397H63.2394H63.2392H63.2389H63.2386H63.2383H63.238H63.2377H63.2374H63.2371H63.2368H63.2365H63.2362H63.2359H63.2356H63.2353H63.235H63.2347H63.2343H63.234H63.2337H63.2334H63.2331H63.2328H63.2325H63.2322H63.2318H63.2315H63.2312H63.2309H63.2306H63.2302H63.2299H63.2296H63.2293H63.2289H63.2286H63.2283H63.2279H63.2276H63.2273H63.2269H63.2266H63.2263H63.2259H63.2256H63.2252H63.2249H63.2246H63.2242H63.2239H63.2235H63.2232H63.2228H63.2225H63.2221H63.2218H63.2214H63.221H63.2207H63.2203H63.22H63.2196H63.2192H63.2189H63.2185H63.2181H63.2178H63.2174H63.217H63.2167H63.2163H63.2159H63.2155H63.2151H63.2148H63.2144H63.214H63.2136H63.2132H63.2128H63.2124H63.212H63.2117H63.2113H63.2109H63.2105H63.2101H63.2097H63.2093H63.2089H63.2085H63.208H63.2076H63.2072H63.2068H63.2064H63.206H63.2056H63.2052H63.2047H63.2043H63.2039H63.2035H63.203H63.2026H63.2022H63.2017H63.2013H63.2009H63.2004H63.2C63.161 17.625 63.1317 17.6249 63.1048 17.624C63.0985 17.6238 63.0929 17.6236 63.0878 17.6233L63.0589 17.6081L59.2339 15.5831L59 15.4592L58.7661 15.5831L54.9411 17.6081L54.9292 17.6143L54.9178 17.6212C54.8546 17.6591 54.7944 17.6631 54.7374 17.646C54.6808 17.629 54.6165 17.5868 54.5658 17.5117C54.5564 17.486 54.5512 17.4472 54.5502 17.3424L55.2925 13.1114L55.3381 12.8514L55.1492 12.6671L52.0769 9.66969C51.9738 9.56521 51.9744 9.43268 52.0786 9.32851L52.1359 9.27113L52.1461 9.25089C52.1542 9.25032 52.1638 9.24995 52.175 9.24995H52.2099L52.2445 9.2451L56.5195 8.6451L56.7846 8.60789L56.9006 8.3666L58.7637 4.49139C58.8147 4.41431 58.88 4.3711 58.9374 4.35387C58.9944 4.33678 59.0546 4.34081 59.1178 4.3787L59.1342 4.38858L59.1514 4.39717C59.1847 4.41384 59.1968 4.42303 59.1996 4.42537C59.2019 4.42811 59.2111 4.4402 59.2278 4.47356L61.1778 8.37356L61.2953 8.60858L61.5555 8.6451L65.8305 9.2451L65.8651 9.24995H65.8948C65.9001 9.25171 65.9261 9.26184 65.9603 9.31017C65.9814 9.34007 65.997 9.37453 66.0052 9.4077C66.0134 9.44089 66.0122 9.46442 66.0097 9.4769Z" stroke="#FFD369"/>
<path d="M88.0097 9.4769L88 9.52544V9.52844L87.9817 9.53761L87.9258 9.59206L84.8508 12.5921L84.6619 12.7764L84.7075 13.0364L85.4571 17.3088C85.4824 17.4655 85.392 17.5857 85.2861 17.625H85.2859H85.2857H85.2854H85.2852H85.285H85.2848H85.2845H85.2843H85.2841H85.2839H85.2836H85.2834H85.2832H85.283H85.2827H85.2825H85.2823H85.2821H85.2818H85.2816H85.2814H85.2812H85.281H85.2807H85.2805H85.2803H85.2801H85.2798H85.2796H85.2794H85.2792H85.279H85.2787H85.2785H85.2783H85.2781H85.2779H85.2776H85.2774H85.2772H85.277H85.2768H85.2765H85.2763H85.2761H85.2759H85.2757H85.2754H85.2752H85.275H85.2748H85.2746H85.2743H85.2741H85.2739H85.2737H85.2735H85.2732H85.273H85.2728H85.2726H85.2724H85.2721H85.2719H85.2717H85.2715H85.2713H85.271H85.2708H85.2706H85.2704H85.2702H85.2699H85.2697H85.2695H85.2693H85.269H85.2688H85.2686H85.2684H85.2682H85.2679H85.2677H85.2675H85.2673H85.267H85.2668H85.2666H85.2664H85.2661H85.2659H85.2657H85.2655H85.2652H85.265H85.2648H85.2646H85.2643H85.2641H85.2639H85.2636H85.2634H85.2632H85.263H85.2627H85.2625H85.2623H85.262H85.2618H85.2616H85.2613H85.2611H85.2609H85.2606H85.2604H85.2602H85.2599H85.2597H85.2595H85.2592H85.259H85.2588H85.2585H85.2583H85.258H85.2578H85.2576H85.2573H85.2571H85.2568H85.2566H85.2564H85.2561H85.2559H85.2556H85.2554H85.2551H85.2549H85.2547H85.2544H85.2542H85.2539H85.2537H85.2534H85.2532H85.2529H85.2527H85.2524H85.2522H85.2519H85.2517H85.2514H85.2511H85.2509H85.2506H85.2504H85.2501H85.2499H85.2496H85.2493H85.2491H85.2488H85.2486H85.2483H85.248H85.2478H85.2475H85.2472H85.247H85.2467H85.2464H85.2462H85.2459H85.2456H85.2454H85.2451H85.2448H85.2445H85.2443H85.244H85.2437H85.2434H85.2431H85.2429H85.2426H85.2423H85.242H85.2417H85.2415H85.2412H85.2409H85.2406H85.2403H85.24H85.2397H85.2394H85.2392H85.2389H85.2386H85.2383H85.238H85.2377H85.2374H85.2371H85.2368H85.2365H85.2362H85.2359H85.2356H85.2353H85.235H85.2347H85.2343H85.234H85.2337H85.2334H85.2331H85.2328H85.2325H85.2322H85.2318H85.2315H85.2312H85.2309H85.2306H85.2302H85.2299H85.2296H85.2293H85.2289H85.2286H85.2283H85.2279H85.2276H85.2273H85.2269H85.2266H85.2263H85.2259H85.2256H85.2252H85.2249H85.2246H85.2242H85.2239H85.2235H85.2232H85.2228H85.2225H85.2221H85.2218H85.2214H85.221H85.2207H85.2203H85.22H85.2196H85.2192H85.2189H85.2185H85.2181H85.2178H85.2174H85.217H85.2167H85.2163H85.2159H85.2155H85.2151H85.2148H85.2144H85.214H85.2136H85.2132H85.2128H85.2124H85.212H85.2117H85.2113H85.2109H85.2105H85.2101H85.2097H85.2093H85.2089H85.2085H85.208H85.2076H85.2072H85.2068H85.2064H85.206H85.2056H85.2052H85.2047H85.2043H85.2039H85.2035H85.203H85.2026H85.2022H85.2017H85.2013H85.2009H85.2004H85.2C85.161 17.625 85.1317 17.6249 85.1048 17.624C85.0985 17.6238 85.0929 17.6236 85.0878 17.6233L85.0589 17.6081L81.2339 15.5831L81 15.4592L80.7661 15.5831L76.9411 17.6081L76.9292 17.6143L76.9178 17.6212C76.8546 17.6591 76.7944 17.6631 76.7374 17.646C76.6808 17.629 76.6165 17.5868 76.5658 17.5117C76.5564 17.486 76.5512 17.4472 76.5502 17.3424L77.2925 13.1114L77.3381 12.8514L77.1492 12.6671L74.0769 9.66969C73.9738 9.56521 73.9744 9.43268 74.0786 9.32851L74.1359 9.27113L74.1461 9.25089C74.1542 9.25032 74.1638 9.24995 74.175 9.24995H74.2099L74.2445 9.2451L78.5195 8.6451L78.7846 8.60789L78.9006 8.3666L80.7637 4.49139C80.8147 4.41431 80.88 4.3711 80.9374 4.35387C80.9944 4.33678 81.0546 4.34081 81.1178 4.3787L81.1342 4.38858L81.1514 4.39717C81.1847 4.41384 81.1968 4.42303 81.1996 4.42537C81.2019 4.42811 81.2111 4.4402 81.2278 4.47356L83.1778 8.37356L83.2953 8.60858L83.5555 8.6451L87.8305 9.2451L87.8651 9.24995H87.8948C87.9001 9.25171 87.9261 9.26184 87.9603 9.31017C87.9814 9.34007 87.997 9.37453 88.0052 9.4077C88.0134 9.44089 88.0122 9.46442 88.0097 9.4769Z" stroke="#FFD369"/>
<path d="M110.01 9.4769L110 9.52544V9.52844L109.982 9.53761L109.926 9.59206L106.851 12.5921L106.662 12.7764L106.708 13.0364L107.457 17.3088C107.482 17.4655 107.392 17.5857 107.286 17.625H107.286H107.286H107.285H107.285H107.285H107.285H107.285H107.284H107.284H107.284H107.284H107.283H107.283H107.283H107.283H107.283H107.282H107.282H107.282H107.282H107.281H107.281H107.281H107.281H107.281H107.28H107.28H107.28H107.28H107.279H107.279H107.279H107.279H107.279H107.278H107.278H107.278H107.278H107.277H107.277H107.277H107.277H107.277H107.276H107.276H107.276H107.276H107.275H107.275H107.275H107.275H107.275H107.274H107.274H107.274H107.274H107.273H107.273H107.273H107.273H107.273H107.272H107.272H107.272H107.272H107.271H107.271H107.271H107.271H107.271H107.27H107.27H107.27H107.27H107.269H107.269H107.269H107.269H107.269H107.268H107.268H107.268H107.268H107.267H107.267H107.267H107.267H107.267H107.266H107.266H107.266H107.266H107.265H107.265H107.265H107.265H107.265H107.264H107.264H107.264H107.264H107.263H107.263H107.263H107.263H107.262H107.262H107.262H107.262H107.262H107.261H107.261H107.261H107.261H107.26H107.26H107.26H107.26H107.259H107.259H107.259H107.259H107.259H107.258H107.258H107.258H107.258H107.257H107.257H107.257H107.257H107.256H107.256H107.256H107.256H107.255H107.255H107.255H107.255H107.254H107.254H107.254H107.254H107.253H107.253H107.253H107.253H107.252H107.252H107.252H107.252H107.251H107.251H107.251H107.251H107.25H107.25H107.25H107.25H107.249H107.249H107.249H107.249H107.248H107.248H107.248H107.248H107.247H107.247H107.247H107.246H107.246H107.246H107.246H107.245H107.245H107.245H107.245H107.244H107.244H107.244H107.243H107.243H107.243H107.243H107.242H107.242H107.242H107.241H107.241H107.241H107.241H107.24H107.24H107.24H107.239H107.239H107.239H107.239H107.238H107.238H107.238H107.237H107.237H107.237H107.236H107.236H107.236H107.236H107.235H107.235H107.235H107.234H107.234H107.234H107.233H107.233H107.233H107.232H107.232H107.232H107.232H107.231H107.231H107.231H107.23H107.23H107.23H107.229H107.229H107.229H107.228H107.228H107.228H107.227H107.227H107.227H107.226H107.226H107.226H107.225H107.225H107.225H107.224H107.224H107.224H107.223H107.223H107.222H107.222H107.222H107.221H107.221H107.221H107.22H107.22H107.22H107.219H107.219H107.219H107.218H107.218H107.217H107.217H107.217H107.216H107.216H107.216H107.215H107.215H107.214H107.214H107.214H107.213H107.213H107.212H107.212H107.212H107.211H107.211H107.21H107.21H107.21H107.209H107.209H107.208H107.208H107.208H107.207H107.207H107.206H107.206H107.206H107.205H107.205H107.204H107.204H107.203H107.203H107.203H107.202H107.202H107.201H107.201H107.2H107.2C107.161 17.625 107.132 17.6249 107.105 17.624C107.099 17.6238 107.093 17.6236 107.088 17.6233L107.059 17.6081L103.234 15.5831L103 15.4592L102.766 15.5831L98.9411 17.6081L98.9292 17.6143L98.9178 17.6212C98.8546 17.6591 98.7944 17.6631 98.7374 17.646C98.6808 17.629 98.6165 17.5868 98.5658 17.5117C98.5564 17.486 98.5512 17.4472 98.5502 17.3424L99.2925 13.1114L99.3381 12.8514L99.1492 12.6671L96.0769 9.66969C95.9738 9.56521 95.9744 9.43268 96.0786 9.32851L96.1359 9.27113L96.1461 9.25089C96.1542 9.25032 96.1638 9.24995 96.175 9.24995H96.2099L96.2445 9.2451L100.519 8.6451L100.785 8.60789L100.901 8.3666L102.764 4.49139C102.815 4.41431 102.88 4.3711 102.937 4.35387C102.994 4.33678 103.055 4.34081 103.118 4.3787L103.134 4.38858L103.151 4.39717C103.185 4.41384 103.197 4.42303 103.2 4.42537C103.202 4.42811 103.211 4.4402 103.228 4.47356L105.178 8.37356L105.295 8.60858L105.556 8.6451L109.831 9.2451L109.865 9.24995H109.895C109.9 9.25171 109.926 9.26184 109.96 9.31017C109.981 9.34007 109.997 9.37453 110.005 9.4077C110.013 9.44089 110.012 9.46442 110.01 9.4769Z" stroke="#FFD369"/>
<path d="M124.568 16L123.294 14.712C122.818 15.2067 122.309 15.5753 121.768 15.818C121.227 16.0513 120.615 16.168 119.934 16.168C119.262 16.168 118.665 16.0467 118.142 15.804C117.629 15.5613 117.227 15.216 116.938 14.768C116.658 14.32 116.518 13.7973 116.518 13.2C116.518 12.5187 116.709 11.9213 117.092 11.408C117.484 10.8853 118.058 10.4747 118.814 10.176C118.515 9.82133 118.301 9.49467 118.17 9.196C118.039 8.89733 117.974 8.57067 117.974 8.216C117.974 7.80533 118.077 7.43667 118.282 7.11C118.497 6.774 118.8 6.51267 119.192 6.326C119.584 6.13933 120.037 6.046 120.55 6.046C121.054 6.046 121.493 6.144 121.866 6.34C122.239 6.536 122.519 6.81133 122.706 7.166C122.893 7.51133 122.977 7.89867 122.958 8.328H121.684C121.693 7.94533 121.586 7.64667 121.362 7.432C121.138 7.208 120.849 7.096 120.494 7.096C120.121 7.096 119.817 7.20333 119.584 7.418C119.36 7.62333 119.248 7.88933 119.248 8.216C119.248 8.496 119.323 8.76667 119.472 9.028C119.631 9.28933 119.892 9.61133 120.256 9.994L123.168 12.92L123.42 12.528L124.372 10.932H125.744L124.596 12.92C124.437 13.2 124.251 13.494 124.036 13.802L126.234 16H124.568ZM119.934 15.076C120.438 15.076 120.891 14.978 121.292 14.782C121.703 14.586 122.09 14.2827 122.454 13.872L119.584 10.988C118.389 11.4453 117.792 12.1687 117.792 13.158C117.792 13.7087 117.988 14.166 118.38 14.53C118.781 14.894 119.299 15.076 119.934 15.076ZM132.406 6.242V12.416C132.406 13.284 132.616 13.928 133.036 14.348C133.465 14.768 134.058 14.978 134.814 14.978C135.561 14.978 136.144 14.768 136.564 14.348C136.993 13.928 137.208 13.284 137.208 12.416V6.242H138.482V12.402C138.482 13.214 138.319 13.9 137.992 14.46C137.665 15.0107 137.222 15.4213 136.662 15.692C136.111 15.9627 135.491 16.098 134.8 16.098C134.109 16.098 133.484 15.9627 132.924 15.692C132.373 15.4213 131.935 15.0107 131.608 14.46C131.291 13.9 131.132 13.214 131.132 12.402V6.242H132.406ZM141.881 9.742C142.133 9.30333 142.507 8.93933 143.001 8.65C143.505 8.35133 144.089 8.202 144.751 8.202C145.433 8.202 146.049 8.36533 146.599 8.692C147.159 9.01867 147.598 9.48067 147.915 10.078C148.233 10.666 148.391 11.352 148.391 12.136C148.391 12.9107 148.233 13.6013 147.915 14.208C147.598 14.8147 147.159 15.286 146.599 15.622C146.049 15.958 145.433 16.126 144.751 16.126C144.098 16.126 143.519 15.9813 143.015 15.692C142.521 15.3933 142.143 15.0247 141.881 14.586V19.64H140.607V8.328H141.881V9.742ZM147.089 12.136C147.089 11.5573 146.973 11.0533 146.739 10.624C146.506 10.1947 146.189 9.868 145.787 9.644C145.395 9.42 144.961 9.308 144.485 9.308C144.019 9.308 143.585 9.42467 143.183 9.658C142.791 9.882 142.474 10.2133 142.231 10.652C141.998 11.0813 141.881 11.5807 141.881 12.15C141.881 12.7287 141.998 13.2373 142.231 13.676C142.474 14.1053 142.791 14.4367 143.183 14.67C143.585 14.894 144.019 15.006 144.485 15.006C144.961 15.006 145.395 14.894 145.787 14.67C146.189 14.4367 146.506 14.1053 146.739 13.676C146.973 13.2373 147.089 12.724 147.089 12.136Z" fill="#06D6A0"/>
</svg>
