<svg width="215" height="22" viewBox="0 0 215 22" fill="none" xmlns="http://www.w3.org/2000/svg">
<path d="M18.8431 9.3186L18.8334 9.36715V9.39931L18.79 9.42098L18.7342 9.47543L15.3175 12.8088L15.1286 12.9931L15.1742 13.2531L16.0071 18.0005C16.0407 18.2069 15.9178 18.3679 15.7718 18.4167H15.7715H15.7713H15.771H15.7707H15.7705H15.7702H15.7699H15.7697H15.7694H15.7691H15.7689H15.7686H15.7683H15.7681H15.7678H15.7675H15.7673H15.767H15.7668H15.7665H15.7662H15.766H15.7657H15.7655H15.7652H15.7649H15.7647H15.7644H15.7642H15.7639H15.7637H15.7634H15.7631H15.7629H15.7626H15.7624H15.7621H15.7619H15.7616H15.7614H15.7611H15.7609H15.7606H15.7604H15.7601H15.7599H15.7596H15.7594H15.7591H15.7589H15.7586H15.7584H15.7581H15.7579H15.7576H15.7574H15.7571H15.7569H15.7566H15.7564H15.7561H15.7559H15.7557H15.7554H15.7552H15.7549H15.7547H15.7544H15.7542H15.7539H15.7537H15.7534H15.7532H15.753H15.7527H15.7525H15.7522H15.752H15.7517H15.7515H15.7512H15.751H15.7508H15.7505H15.7503H15.75H15.7498H15.7495H15.7493H15.749H15.7488H15.7486H15.7483H15.7481H15.7478H15.7476H15.7473H15.7471H15.7468H15.7466H15.7464H15.7461H15.7459H15.7456H15.7454H15.7451H15.7449H15.7446H15.7444H15.7441H15.7439H15.7437H15.7434H15.7432H15.7429H15.7427H15.7424H15.7422H15.7419H15.7417H15.7414H15.7412H15.7409H15.7407H15.7404H15.7402H15.7399H15.7397H15.7394H15.7392H15.7389H15.7387H15.7384H15.7382H15.7379H15.7377H15.7374H15.7372H15.7369H15.7366H15.7364H15.7361H15.7359H15.7356H15.7354H15.7351H15.7348H15.7346H15.7343H15.7341H15.7338H15.7336H15.7333H15.733H15.7328H15.7325H15.7322H15.732H15.7317H15.7315H15.7312H15.7309H15.7307H15.7304H15.7301H15.7299H15.7296H15.7293H15.729H15.7288H15.7285H15.7282H15.728H15.7277H15.7274H15.7271H15.7269H15.7266H15.7263H15.726H15.7258H15.7255H15.7252H15.7249H15.7246H15.7244H15.7241H15.7238H15.7235H15.7232H15.7229H15.7227H15.7224H15.7221H15.7218H15.7215H15.7212H15.7209H15.7206H15.7203H15.7201H15.7198H15.7195H15.7192H15.7189H15.7186H15.7183H15.718H15.7177H15.7174H15.7171H15.7168H15.7165H15.7162H15.7159H15.7156H15.7152H15.7149H15.7146H15.7143H15.714H15.7137H15.7134H15.7131H15.7128H15.7124H15.7121H15.7118H15.7115H15.7112H15.7108H15.7105H15.7102H15.7099H15.7095H15.7092H15.7089H15.7086H15.7082H15.7079H15.7076H15.7072H15.7069H15.7065H15.7062H15.7059H15.7055H15.7052H15.7048H15.7045H15.7042H15.7038H15.7035H15.7031H15.7028H15.7024H15.7021H15.7017H15.7014H15.701H15.7006H15.7003H15.6999H15.6996H15.6992H15.6988H15.6985H15.6981H15.6977H15.6974H15.697H15.6966H15.6962H15.6959H15.6955H15.6951H15.6947H15.6944H15.694H15.6936H15.6932H15.6928H15.6924H15.692H15.6917H15.6913H15.6909H15.6905H15.6901H15.6897H15.6893H15.6889H15.6885H15.6881H15.6877H15.6873H15.6868H15.6864H15.686H15.6856H15.6852H15.6848H15.6844H15.6839H15.6835H15.6831H15.6827H15.6822H15.6818H15.6814H15.6809H15.6805H15.6801H15.6796H15.6792H15.6788H15.6783H15.6779H15.6774H15.677H15.6765H15.6761H15.6756H15.6752H15.6747H15.6743H15.6738H15.6733H15.6729H15.6724H15.6719H15.6715H15.671H15.6705H15.6701H15.6696H15.6691H15.6686H15.6681H15.6677H15.6672H15.6667C15.6235 18.4167 15.59 18.4166 15.5591 18.4156C15.5464 18.4152 15.5357 18.4147 15.5267 18.4141L15.484 18.3914L11.234 16.1414L11 16.0176L10.7661 16.1414L6.51608 18.3914L6.50425 18.3977L6.49277 18.4046C6.35374 18.488 6.15501 18.4627 6.02368 18.2613C6.00753 18.2218 6.00123 18.1709 6.00018 18.0426L6.82583 13.3364L6.87144 13.0764L6.68252 12.8921L3.26847 9.56132C3.13217 9.42345 3.13276 9.24102 3.27024 9.10354L3.32761 9.04617L3.34825 9.0049C3.36254 9.00242 3.38469 8.99999 3.41669 8.99999H3.4516L3.48618 8.99514L8.23618 8.32847L8.50131 8.29126L8.61731 8.04997L10.6891 3.74061C10.8204 3.53747 11.02 3.51172 11.1594 3.5954L11.1759 3.60528L11.1931 3.61387C11.2456 3.64011 11.2586 3.65316 11.261 3.65554L11.2611 3.65563L11.2611 3.65571C11.2635 3.65808 11.2766 3.6711 11.3028 3.7236L11.7474 3.50131L11.3028 3.7236L13.4695 8.05693L13.587 8.29195L13.8472 8.32847L18.5972 8.99514L18.6318 8.99999H18.6667C18.6672 8.99999 18.7181 9.00405 18.779 9.09041C18.8394 9.17597 18.8532 9.2677 18.8431 9.3186Z" fill="#FFD369" stroke="#FFD369"/>
<path d="M42.8431 9.3186L42.8334 9.36715V9.39931L42.79 9.42098L42.7342 9.47543L39.3175 12.8088L39.1286 12.9931L39.1742 13.2531L40.0071 18.0005C40.0407 18.2069 39.9178 18.3679 39.7718 18.4167H39.7715H39.7713H39.771H39.7707H39.7705H39.7702H39.7699H39.7697H39.7694H39.7691H39.7689H39.7686H39.7683H39.7681H39.7678H39.7675H39.7673H39.767H39.7668H39.7665H39.7662H39.766H39.7657H39.7655H39.7652H39.7649H39.7647H39.7644H39.7642H39.7639H39.7637H39.7634H39.7631H39.7629H39.7626H39.7624H39.7621H39.7619H39.7616H39.7614H39.7611H39.7609H39.7606H39.7604H39.7601H39.7599H39.7596H39.7594H39.7591H39.7589H39.7586H39.7584H39.7581H39.7579H39.7576H39.7574H39.7571H39.7569H39.7566H39.7564H39.7561H39.7559H39.7557H39.7554H39.7552H39.7549H39.7547H39.7544H39.7542H39.7539H39.7537H39.7534H39.7532H39.753H39.7527H39.7525H39.7522H39.752H39.7517H39.7515H39.7512H39.751H39.7508H39.7505H39.7503H39.75H39.7498H39.7495H39.7493H39.749H39.7488H39.7486H39.7483H39.7481H39.7478H39.7476H39.7473H39.7471H39.7468H39.7466H39.7464H39.7461H39.7459H39.7456H39.7454H39.7451H39.7449H39.7446H39.7444H39.7441H39.7439H39.7437H39.7434H39.7432H39.7429H39.7427H39.7424H39.7422H39.7419H39.7417H39.7414H39.7412H39.7409H39.7407H39.7404H39.7402H39.7399H39.7397H39.7394H39.7392H39.7389H39.7387H39.7384H39.7382H39.7379H39.7377H39.7374H39.7372H39.7369H39.7366H39.7364H39.7361H39.7359H39.7356H39.7354H39.7351H39.7348H39.7346H39.7343H39.7341H39.7338H39.7336H39.7333H39.733H39.7328H39.7325H39.7322H39.732H39.7317H39.7315H39.7312H39.7309H39.7307H39.7304H39.7301H39.7299H39.7296H39.7293H39.729H39.7288H39.7285H39.7282H39.728H39.7277H39.7274H39.7271H39.7269H39.7266H39.7263H39.726H39.7258H39.7255H39.7252H39.7249H39.7246H39.7244H39.7241H39.7238H39.7235H39.7232H39.7229H39.7227H39.7224H39.7221H39.7218H39.7215H39.7212H39.7209H39.7206H39.7203H39.7201H39.7198H39.7195H39.7192H39.7189H39.7186H39.7183H39.718H39.7177H39.7174H39.7171H39.7168H39.7165H39.7162H39.7159H39.7156H39.7152H39.7149H39.7146H39.7143H39.714H39.7137H39.7134H39.7131H39.7128H39.7124H39.7121H39.7118H39.7115H39.7112H39.7108H39.7105H39.7102H39.7099H39.7095H39.7092H39.7089H39.7086H39.7082H39.7079H39.7076H39.7072H39.7069H39.7065H39.7062H39.7059H39.7055H39.7052H39.7048H39.7045H39.7042H39.7038H39.7035H39.7031H39.7028H39.7024H39.7021H39.7017H39.7014H39.701H39.7006H39.7003H39.6999H39.6996H39.6992H39.6988H39.6985H39.6981H39.6977H39.6974H39.697H39.6966H39.6962H39.6959H39.6955H39.6951H39.6947H39.6944H39.694H39.6936H39.6932H39.6928H39.6924H39.692H39.6917H39.6913H39.6909H39.6905H39.6901H39.6897H39.6893H39.6889H39.6885H39.6881H39.6877H39.6873H39.6868H39.6864H39.686H39.6856H39.6852H39.6848H39.6844H39.6839H39.6835H39.6831H39.6827H39.6822H39.6818H39.6814H39.6809H39.6805H39.6801H39.6796H39.6792H39.6788H39.6783H39.6779H39.6774H39.677H39.6765H39.6761H39.6756H39.6752H39.6747H39.6743H39.6738H39.6733H39.6729H39.6724H39.6719H39.6715H39.671H39.6705H39.6701H39.6696H39.6691H39.6686H39.6681H39.6677H39.6672H39.6667C39.6235 18.4167 39.59 18.4166 39.5591 18.4156C39.5464 18.4152 39.5357 18.4147 39.5267 18.4141L39.484 18.3914L35.234 16.1414L35 16.0176L34.7661 16.1414L30.5161 18.3914L30.5042 18.3977L30.4928 18.4046C30.3537 18.488 30.155 18.4627 30.0237 18.2613C30.0075 18.2218 30.0012 18.1709 30.0002 18.0426L30.8258 13.3364L30.8714 13.0764L30.6825 12.8921L27.2685 9.56132C27.1322 9.42345 27.1328 9.24102 27.2702 9.10354L27.3276 9.04617L27.3482 9.0049C27.3625 9.00242 27.3847 8.99999 27.4167 8.99999H27.4516L27.4862 8.99514L32.2362 8.32847L32.5013 8.29126L32.6173 8.04997L34.6891 3.74061C34.8204 3.53747 35.02 3.51172 35.1594 3.5954L35.1759 3.60528L35.1931 3.61387C35.2456 3.64011 35.2586 3.65316 35.261 3.65554L35.2611 3.65563L35.2611 3.65571C35.2635 3.65808 35.2766 3.6711 35.3028 3.7236L35.7474 3.50131L35.3028 3.7236L37.4695 8.05693L37.587 8.29195L37.8472 8.32847L42.5972 8.99514L42.6318 8.99999H42.6667C42.6672 8.99999 42.7181 9.00405 42.779 9.09041C42.8394 9.17597 42.8532 9.2677 42.8431 9.3186Z" fill="#FFD369" stroke="#FFD369"/>
<path d="M66.8431 9.3186L66.8334 9.36715V9.39931L66.79 9.42098L66.7342 9.47543L63.3175 12.8088L63.1286 12.9931L63.1742 13.2531L64.0071 18.0005C64.0407 18.2069 63.9178 18.3679 63.7718 18.4167H63.7715H63.7713H63.771H63.7707H63.7705H63.7702H63.7699H63.7697H63.7694H63.7691H63.7689H63.7686H63.7683H63.7681H63.7678H63.7675H63.7673H63.767H63.7668H63.7665H63.7662H63.766H63.7657H63.7655H63.7652H63.7649H63.7647H63.7644H63.7642H63.7639H63.7637H63.7634H63.7631H63.7629H63.7626H63.7624H63.7621H63.7619H63.7616H63.7614H63.7611H63.7609H63.7606H63.7604H63.7601H63.7599H63.7596H63.7594H63.7591H63.7589H63.7586H63.7584H63.7581H63.7579H63.7576H63.7574H63.7571H63.7569H63.7566H63.7564H63.7561H63.7559H63.7557H63.7554H63.7552H63.7549H63.7547H63.7544H63.7542H63.7539H63.7537H63.7534H63.7532H63.753H63.7527H63.7525H63.7522H63.752H63.7517H63.7515H63.7512H63.751H63.7508H63.7505H63.7503H63.75H63.7498H63.7495H63.7493H63.749H63.7488H63.7486H63.7483H63.7481H63.7478H63.7476H63.7473H63.7471H63.7468H63.7466H63.7464H63.7461H63.7459H63.7456H63.7454H63.7451H63.7449H63.7446H63.7444H63.7441H63.7439H63.7437H63.7434H63.7432H63.7429H63.7427H63.7424H63.7422H63.7419H63.7417H63.7414H63.7412H63.7409H63.7407H63.7404H63.7402H63.7399H63.7397H63.7394H63.7392H63.7389H63.7387H63.7384H63.7382H63.7379H63.7377H63.7374H63.7372H63.7369H63.7366H63.7364H63.7361H63.7359H63.7356H63.7354H63.7351H63.7348H63.7346H63.7343H63.7341H63.7338H63.7336H63.7333H63.733H63.7328H63.7325H63.7322H63.732H63.7317H63.7315H63.7312H63.7309H63.7307H63.7304H63.7301H63.7299H63.7296H63.7293H63.729H63.7288H63.7285H63.7282H63.728H63.7277H63.7274H63.7271H63.7269H63.7266H63.7263H63.726H63.7258H63.7255H63.7252H63.7249H63.7246H63.7244H63.7241H63.7238H63.7235H63.7232H63.7229H63.7227H63.7224H63.7221H63.7218H63.7215H63.7212H63.7209H63.7206H63.7203H63.7201H63.7198H63.7195H63.7192H63.7189H63.7186H63.7183H63.718H63.7177H63.7174H63.7171H63.7168H63.7165H63.7162H63.7159H63.7156H63.7152H63.7149H63.7146H63.7143H63.714H63.7137H63.7134H63.7131H63.7128H63.7124H63.7121H63.7118H63.7115H63.7112H63.7108H63.7105H63.7102H63.7099H63.7095H63.7092H63.7089H63.7086H63.7082H63.7079H63.7076H63.7072H63.7069H63.7065H63.7062H63.7059H63.7055H63.7052H63.7048H63.7045H63.7042H63.7038H63.7035H63.7031H63.7028H63.7024H63.7021H63.7017H63.7014H63.701H63.7006H63.7003H63.6999H63.6996H63.6992H63.6988H63.6985H63.6981H63.6977H63.6974H63.697H63.6966H63.6962H63.6959H63.6955H63.6951H63.6947H63.6944H63.694H63.6936H63.6932H63.6928H63.6924H63.692H63.6917H63.6913H63.6909H63.6905H63.6901H63.6897H63.6893H63.6889H63.6885H63.6881H63.6877H63.6873H63.6868H63.6864H63.686H63.6856H63.6852H63.6848H63.6844H63.6839H63.6835H63.6831H63.6827H63.6822H63.6818H63.6814H63.6809H63.6805H63.6801H63.6796H63.6792H63.6788H63.6783H63.6779H63.6774H63.677H63.6765H63.6761H63.6756H63.6752H63.6747H63.6743H63.6738H63.6733H63.6729H63.6724H63.6719H63.6715H63.671H63.6705H63.6701H63.6696H63.6691H63.6686H63.6681H63.6677H63.6672H63.6667C63.6235 18.4167 63.59 18.4166 63.5591 18.4156C63.5464 18.4152 63.5357 18.4147 63.5267 18.4141L63.484 18.3914L59.234 16.1414L59 16.0176L58.7661 16.1414L54.5161 18.3914L54.5042 18.3977L54.4928 18.4046C54.3537 18.488 54.155 18.4627 54.0237 18.2613C54.0075 18.2218 54.0012 18.1709 54.0002 18.0426L54.8258 13.3364L54.8714 13.0764L54.6825 12.8921L51.2685 9.56132C51.1322 9.42345 51.1328 9.24102 51.2702 9.10354L51.3276 9.04617L51.3482 9.0049C51.3625 9.00242 51.3847 8.99999 51.4167 8.99999H51.4516L51.4862 8.99514L56.2362 8.32847L56.5013 8.29126L56.6173 8.04997L58.6891 3.74061C58.8204 3.53747 59.02 3.51172 59.1594 3.5954L59.1759 3.60528L59.1931 3.61387C59.2456 3.64011 59.2586 3.65316 59.261 3.65554L59.2611 3.65563L59.2611 3.65571C59.2635 3.65808 59.2766 3.6711 59.3028 3.7236L59.7474 3.50131L59.3028 3.7236L61.4695 8.05693L61.587 8.29195L61.8472 8.32847L66.5972 8.99514L66.6318 8.99999H66.6667C66.6672 8.99999 66.7181 9.00405 66.779 9.09041C66.8394 9.17597 66.8532 9.2677 66.8431 9.3186Z" fill="#FFD369" stroke="#FFD369"/>
<path d="M89.0097 9.4769L89 9.52544V9.52844L88.9817 9.53761L88.9258 9.59206L85.8508 12.5921L85.6619 12.7764L85.7075 13.0364L86.4571 17.3088C86.4824 17.4655 86.392 17.5857 86.2861 17.625H86.2859H86.2857H86.2854H86.2852H86.285H86.2848H86.2845H86.2843H86.2841H86.2839H86.2836H86.2834H86.2832H86.283H86.2827H86.2825H86.2823H86.2821H86.2818H86.2816H86.2814H86.2812H86.281H86.2807H86.2805H86.2803H86.2801H86.2798H86.2796H86.2794H86.2792H86.279H86.2787H86.2785H86.2783H86.2781H86.2779H86.2776H86.2774H86.2772H86.277H86.2768H86.2765H86.2763H86.2761H86.2759H86.2757H86.2754H86.2752H86.275H86.2748H86.2746H86.2743H86.2741H86.2739H86.2737H86.2735H86.2732H86.273H86.2728H86.2726H86.2724H86.2721H86.2719H86.2717H86.2715H86.2713H86.271H86.2708H86.2706H86.2704H86.2702H86.2699H86.2697H86.2695H86.2693H86.269H86.2688H86.2686H86.2684H86.2682H86.2679H86.2677H86.2675H86.2673H86.267H86.2668H86.2666H86.2664H86.2661H86.2659H86.2657H86.2655H86.2652H86.265H86.2648H86.2646H86.2643H86.2641H86.2639H86.2636H86.2634H86.2632H86.263H86.2627H86.2625H86.2623H86.262H86.2618H86.2616H86.2613H86.2611H86.2609H86.2606H86.2604H86.2602H86.2599H86.2597H86.2595H86.2592H86.259H86.2588H86.2585H86.2583H86.258H86.2578H86.2576H86.2573H86.2571H86.2568H86.2566H86.2564H86.2561H86.2559H86.2556H86.2554H86.2551H86.2549H86.2547H86.2544H86.2542H86.2539H86.2537H86.2534H86.2532H86.2529H86.2527H86.2524H86.2522H86.2519H86.2517H86.2514H86.2511H86.2509H86.2506H86.2504H86.2501H86.2499H86.2496H86.2493H86.2491H86.2488H86.2486H86.2483H86.248H86.2478H86.2475H86.2472H86.247H86.2467H86.2464H86.2462H86.2459H86.2456H86.2454H86.2451H86.2448H86.2445H86.2443H86.244H86.2437H86.2434H86.2431H86.2429H86.2426H86.2423H86.242H86.2417H86.2415H86.2412H86.2409H86.2406H86.2403H86.24H86.2397H86.2394H86.2392H86.2389H86.2386H86.2383H86.238H86.2377H86.2374H86.2371H86.2368H86.2365H86.2362H86.2359H86.2356H86.2353H86.235H86.2347H86.2343H86.234H86.2337H86.2334H86.2331H86.2328H86.2325H86.2322H86.2318H86.2315H86.2312H86.2309H86.2306H86.2302H86.2299H86.2296H86.2293H86.2289H86.2286H86.2283H86.2279H86.2276H86.2273H86.2269H86.2266H86.2263H86.2259H86.2256H86.2252H86.2249H86.2246H86.2242H86.2239H86.2235H86.2232H86.2228H86.2225H86.2221H86.2218H86.2214H86.221H86.2207H86.2203H86.22H86.2196H86.2192H86.2189H86.2185H86.2181H86.2178H86.2174H86.217H86.2167H86.2163H86.2159H86.2155H86.2151H86.2148H86.2144H86.214H86.2136H86.2132H86.2128H86.2124H86.212H86.2117H86.2113H86.2109H86.2105H86.2101H86.2097H86.2093H86.2089H86.2085H86.208H86.2076H86.2072H86.2068H86.2064H86.206H86.2056H86.2052H86.2047H86.2043H86.2039H86.2035H86.203H86.2026H86.2022H86.2017H86.2013H86.2009H86.2004H86.2C86.161 17.625 86.1317 17.6249 86.1048 17.624C86.0985 17.6238 86.0929 17.6236 86.0878 17.6233L86.0589 17.6081L82.2339 15.5831L82 15.4592L81.7661 15.5831L77.9411 17.6081L77.9292 17.6143L77.9178 17.6212C77.8546 17.6591 77.7944 17.6631 77.7374 17.646C77.6808 17.629 77.6165 17.5868 77.5658 17.5117C77.5564 17.486 77.5512 17.4472 77.5502 17.3424L78.2925 13.1114L78.3381 12.8514L78.1492 12.6671L75.0769 9.66969C74.9738 9.56521 74.9744 9.43268 75.0786 9.32851L75.1359 9.27113L75.1461 9.25089C75.1542 9.25032 75.1638 9.24995 75.175 9.24995H75.2099L75.2445 9.2451L79.5195 8.6451L79.7846 8.60789L79.9006 8.3666L81.7637 4.49139C81.8147 4.41431 81.88 4.3711 81.9374 4.35387C81.9944 4.33678 82.0546 4.34081 82.1178 4.3787L82.1342 4.38858L82.1514 4.39717C82.1847 4.41384 82.1968 4.42303 82.1996 4.42537C82.2019 4.42811 82.2111 4.4402 82.2278 4.47356L84.1778 8.37356L84.2953 8.60858L84.5555 8.6451L88.8305 9.2451L88.8651 9.24995H88.8948C88.9001 9.25171 88.9261 9.26184 88.9603 9.31017C88.9814 9.34007 88.997 9.37453 89.0052 9.4077C89.0134 9.44089 89.0122 9.46442 89.0097 9.4769Z" stroke="#FFD369"/>
<path d="M111.01 9.4769L111 9.52544V9.52844L110.982 9.53761L110.926 9.59206L107.851 12.5921L107.662 12.7764L107.708 13.0364L108.457 17.3088C108.482 17.4655 108.392 17.5857 108.286 17.625H108.286H108.286H108.285H108.285H108.285H108.285H108.285H108.284H108.284H108.284H108.284H108.283H108.283H108.283H108.283H108.283H108.282H108.282H108.282H108.282H108.281H108.281H108.281H108.281H108.281H108.28H108.28H108.28H108.28H108.279H108.279H108.279H108.279H108.279H108.278H108.278H108.278H108.278H108.277H108.277H108.277H108.277H108.277H108.276H108.276H108.276H108.276H108.275H108.275H108.275H108.275H108.275H108.274H108.274H108.274H108.274H108.273H108.273H108.273H108.273H108.273H108.272H108.272H108.272H108.272H108.271H108.271H108.271H108.271H108.271H108.27H108.27H108.27H108.27H108.269H108.269H108.269H108.269H108.269H108.268H108.268H108.268H108.268H108.267H108.267H108.267H108.267H108.267H108.266H108.266H108.266H108.266H108.265H108.265H108.265H108.265H108.265H108.264H108.264H108.264H108.264H108.263H108.263H108.263H108.263H108.262H108.262H108.262H108.262H108.262H108.261H108.261H108.261H108.261H108.26H108.26H108.26H108.26H108.259H108.259H108.259H108.259H108.259H108.258H108.258H108.258H108.258H108.257H108.257H108.257H108.257H108.256H108.256H108.256H108.256H108.255H108.255H108.255H108.255H108.254H108.254H108.254H108.254H108.253H108.253H108.253H108.253H108.252H108.252H108.252H108.252H108.251H108.251H108.251H108.251H108.25H108.25H108.25H108.25H108.249H108.249H108.249H108.249H108.248H108.248H108.248H108.248H108.247H108.247H108.247H108.246H108.246H108.246H108.246H108.245H108.245H108.245H108.245H108.244H108.244H108.244H108.243H108.243H108.243H108.243H108.242H108.242H108.242H108.241H108.241H108.241H108.241H108.24H108.24H108.24H108.239H108.239H108.239H108.239H108.238H108.238H108.238H108.237H108.237H108.237H108.236H108.236H108.236H108.236H108.235H108.235H108.235H108.234H108.234H108.234H108.233H108.233H108.233H108.232H108.232H108.232H108.232H108.231H108.231H108.231H108.23H108.23H108.23H108.229H108.229H108.229H108.228H108.228H108.228H108.227H108.227H108.227H108.226H108.226H108.226H108.225H108.225H108.225H108.224H108.224H108.224H108.223H108.223H108.222H108.222H108.222H108.221H108.221H108.221H108.22H108.22H108.22H108.219H108.219H108.219H108.218H108.218H108.217H108.217H108.217H108.216H108.216H108.216H108.215H108.215H108.214H108.214H108.214H108.213H108.213H108.212H108.212H108.212H108.211H108.211H108.21H108.21H108.21H108.209H108.209H108.208H108.208H108.208H108.207H108.207H108.206H108.206H108.206H108.205H108.205H108.204H108.204H108.203H108.203H108.203H108.202H108.202H108.201H108.201H108.2H108.2C108.161 17.625 108.132 17.6249 108.105 17.624C108.099 17.6238 108.093 17.6236 108.088 17.6233L108.059 17.6081L104.234 15.5831L104 15.4592L103.766 15.5831L99.9411 17.6081L99.9292 17.6143L99.9178 17.6212C99.8546 17.6591 99.7944 17.6631 99.7374 17.646C99.6808 17.629 99.6165 17.5868 99.5658 17.5117C99.5564 17.486 99.5512 17.4472 99.5502 17.3424L100.292 13.1114L100.338 12.8514L100.149 12.6671L97.0769 9.66969C96.9738 9.56521 96.9744 9.43268 97.0786 9.32851L97.1359 9.27113L97.1461 9.25089C97.1542 9.25032 97.1638 9.24995 97.175 9.24995H97.2099L97.2445 9.2451L101.519 8.6451L101.785 8.60789L101.901 8.3666L103.764 4.49139C103.815 4.41431 103.88 4.3711 103.937 4.35387C103.994 4.33678 104.055 4.34081 104.118 4.3787L104.134 4.38858L104.151 4.39717C104.185 4.41384 104.197 4.42303 104.2 4.42537C104.202 4.42811 104.211 4.4402 104.228 4.47356L106.178 8.37356L106.295 8.60858L106.556 8.6451L110.831 9.2451L110.865 9.24995H110.895C110.9 9.25171 110.926 9.26184 110.96 9.31017C110.981 9.34007 110.997 9.37453 111.005 9.4077C111.013 9.44089 111.012 9.46442 111.01 9.4769Z" stroke="#FFD369"/>
<path d="M125.568 16L124.294 14.712C123.818 15.2067 123.309 15.5753 122.768 15.818C122.227 16.0513 121.615 16.168 120.934 16.168C120.262 16.168 119.665 16.0467 119.142 15.804C118.629 15.5613 118.227 15.216 117.938 14.768C117.658 14.32 117.518 13.7973 117.518 13.2C117.518 12.5187 117.709 11.9213 118.092 11.408C118.484 10.8853 119.058 10.4747 119.814 10.176C119.515 9.82133 119.301 9.49467 119.17 9.196C119.039 8.89733 118.974 8.57067 118.974 8.216C118.974 7.80533 119.077 7.43667 119.282 7.11C119.497 6.774 119.8 6.51267 120.192 6.326C120.584 6.13933 121.037 6.046 121.55 6.046C122.054 6.046 122.493 6.144 122.866 6.34C123.239 6.536 123.519 6.81133 123.706 7.166C123.893 7.51133 123.977 7.89867 123.958 8.328H122.684C122.693 7.94533 122.586 7.64667 122.362 7.432C122.138 7.208 121.849 7.096 121.494 7.096C121.121 7.096 120.817 7.20333 120.584 7.418C120.36 7.62333 120.248 7.88933 120.248 8.216C120.248 8.496 120.323 8.76667 120.472 9.028C120.631 9.28933 120.892 9.61133 121.256 9.994L124.168 12.92L124.42 12.528L125.372 10.932H126.744L125.596 12.92C125.437 13.2 125.251 13.494 125.036 13.802L127.234 16H125.568ZM120.934 15.076C121.438 15.076 121.891 14.978 122.292 14.782C122.703 14.586 123.09 14.2827 123.454 13.872L120.584 10.988C119.389 11.4453 118.792 12.1687 118.792 13.158C118.792 13.7087 118.988 14.166 119.38 14.53C119.781 14.894 120.299 15.076 120.934 15.076ZM133.406 6.242V12.416C133.406 13.284 133.616 13.928 134.036 14.348C134.465 14.768 135.058 14.978 135.814 14.978C136.561 14.978 137.144 14.768 137.564 14.348C137.993 13.928 138.208 13.284 138.208 12.416V6.242H139.482V12.402C139.482 13.214 139.319 13.9 138.992 14.46C138.665 15.0107 138.222 15.4213 137.662 15.692C137.111 15.9627 136.491 16.098 135.8 16.098C135.109 16.098 134.484 15.9627 133.924 15.692C133.373 15.4213 132.935 15.0107 132.608 14.46C132.291 13.9 132.132 13.214 132.132 12.402V6.242H133.406ZM142.881 9.742C143.133 9.30333 143.507 8.93933 144.001 8.65C144.505 8.35133 145.089 8.202 145.751 8.202C146.433 8.202 147.049 8.36533 147.599 8.692C148.159 9.01867 148.598 9.48067 148.915 10.078C149.233 10.666 149.391 11.352 149.391 12.136C149.391 12.9107 149.233 13.6013 148.915 14.208C148.598 14.8147 148.159 15.286 147.599 15.622C147.049 15.958 146.433 16.126 145.751 16.126C145.098 16.126 144.519 15.9813 144.015 15.692C143.521 15.3933 143.143 15.0247 142.881 14.586V19.64H141.607V8.328H142.881V9.742ZM148.089 12.136C148.089 11.5573 147.973 11.0533 147.739 10.624C147.506 10.1947 147.189 9.868 146.787 9.644C146.395 9.42 145.961 9.308 145.485 9.308C145.019 9.308 144.585 9.42467 144.183 9.658C143.791 9.882 143.474 10.2133 143.231 10.652C142.998 11.0813 142.881 11.5807 142.881 12.15C142.881 12.7287 142.998 13.2373 143.231 13.676C143.474 14.1053 143.791 14.4367 144.183 14.67C144.585 14.894 145.019 15.006 145.485 15.006C145.961 15.006 146.395 14.894 146.787 14.67C147.189 14.4367 147.506 14.1053 147.739 13.676C147.973 13.2373 148.089 12.724 148.089 12.136Z" fill="#06D6A0"/>
</svg>
