<svg width="215" height="22" viewBox="0 0 215 22" fill="none" xmlns="http://www.w3.org/2000/svg">
<path d="M17.8431 9.3186L17.8334 9.36715V9.39931L17.79 9.42098L17.7342 9.47543L14.3175 12.8088L14.1286 12.9931L14.1742 13.2531L15.0071 18.0005C15.0407 18.2069 14.9178 18.3679 14.7718 18.4167H14.7715H14.7713H14.771H14.7707H14.7705H14.7702H14.7699H14.7697H14.7694H14.7691H14.7689H14.7686H14.7683H14.7681H14.7678H14.7675H14.7673H14.767H14.7668H14.7665H14.7662H14.766H14.7657H14.7655H14.7652H14.7649H14.7647H14.7644H14.7642H14.7639H14.7637H14.7634H14.7631H14.7629H14.7626H14.7624H14.7621H14.7619H14.7616H14.7614H14.7611H14.7609H14.7606H14.7604H14.7601H14.7599H14.7596H14.7594H14.7591H14.7589H14.7586H14.7584H14.7581H14.7579H14.7576H14.7574H14.7571H14.7569H14.7566H14.7564H14.7561H14.7559H14.7557H14.7554H14.7552H14.7549H14.7547H14.7544H14.7542H14.7539H14.7537H14.7534H14.7532H14.753H14.7527H14.7525H14.7522H14.752H14.7517H14.7515H14.7512H14.751H14.7508H14.7505H14.7503H14.75H14.7498H14.7495H14.7493H14.749H14.7488H14.7486H14.7483H14.7481H14.7478H14.7476H14.7473H14.7471H14.7468H14.7466H14.7464H14.7461H14.7459H14.7456H14.7454H14.7451H14.7449H14.7446H14.7444H14.7441H14.7439H14.7437H14.7434H14.7432H14.7429H14.7427H14.7424H14.7422H14.7419H14.7417H14.7414H14.7412H14.7409H14.7407H14.7404H14.7402H14.7399H14.7397H14.7394H14.7392H14.7389H14.7387H14.7384H14.7382H14.7379H14.7377H14.7374H14.7372H14.7369H14.7366H14.7364H14.7361H14.7359H14.7356H14.7354H14.7351H14.7348H14.7346H14.7343H14.7341H14.7338H14.7336H14.7333H14.733H14.7328H14.7325H14.7322H14.732H14.7317H14.7315H14.7312H14.7309H14.7307H14.7304H14.7301H14.7299H14.7296H14.7293H14.729H14.7288H14.7285H14.7282H14.728H14.7277H14.7274H14.7271H14.7269H14.7266H14.7263H14.726H14.7258H14.7255H14.7252H14.7249H14.7246H14.7244H14.7241H14.7238H14.7235H14.7232H14.7229H14.7227H14.7224H14.7221H14.7218H14.7215H14.7212H14.7209H14.7206H14.7203H14.7201H14.7198H14.7195H14.7192H14.7189H14.7186H14.7183H14.718H14.7177H14.7174H14.7171H14.7168H14.7165H14.7162H14.7159H14.7156H14.7152H14.7149H14.7146H14.7143H14.714H14.7137H14.7134H14.7131H14.7128H14.7124H14.7121H14.7118H14.7115H14.7112H14.7108H14.7105H14.7102H14.7099H14.7095H14.7092H14.7089H14.7086H14.7082H14.7079H14.7076H14.7072H14.7069H14.7065H14.7062H14.7059H14.7055H14.7052H14.7048H14.7045H14.7042H14.7038H14.7035H14.7031H14.7028H14.7024H14.7021H14.7017H14.7014H14.701H14.7006H14.7003H14.6999H14.6996H14.6992H14.6988H14.6985H14.6981H14.6977H14.6974H14.697H14.6966H14.6962H14.6959H14.6955H14.6951H14.6947H14.6944H14.694H14.6936H14.6932H14.6928H14.6924H14.692H14.6917H14.6913H14.6909H14.6905H14.6901H14.6897H14.6893H14.6889H14.6885H14.6881H14.6877H14.6873H14.6868H14.6864H14.686H14.6856H14.6852H14.6848H14.6844H14.6839H14.6835H14.6831H14.6827H14.6822H14.6818H14.6814H14.6809H14.6805H14.6801H14.6796H14.6792H14.6788H14.6783H14.6779H14.6774H14.677H14.6765H14.6761H14.6756H14.6752H14.6747H14.6743H14.6738H14.6733H14.6729H14.6724H14.6719H14.6715H14.671H14.6705H14.6701H14.6696H14.6691H14.6686H14.6681H14.6677H14.6672H14.6667C14.6235 18.4167 14.59 18.4166 14.5591 18.4156C14.5464 18.4152 14.5357 18.4147 14.5267 18.4141L14.484 18.3914L10.234 16.1414L10 16.0176L9.76608 16.1414L5.51608 18.3914L5.50425 18.3977L5.49277 18.4046C5.35374 18.488 5.15501 18.4627 5.02368 18.2613C5.00753 18.2218 5.00123 18.1709 5.00018 18.0426L5.82583 13.3364L5.87144 13.0764L5.68252 12.8921L2.26847 9.56132C2.13217 9.42345 2.13276 9.24102 2.27024 9.10354L2.32761 9.04617L2.34825 9.0049C2.36254 9.00242 2.38469 8.99999 2.41669 8.99999H2.4516L2.48618 8.99514L7.23618 8.32847L7.50131 8.29126L7.61731 8.04997L9.68912 3.74061C9.82043 3.53747 10.02 3.51172 10.1594 3.5954L10.1759 3.60528L10.1931 3.61387C10.2456 3.64011 10.2586 3.65316 10.261 3.65554L10.2611 3.65563L10.2611 3.65571C10.2635 3.65808 10.2766 3.6711 10.3028 3.7236L10.7474 3.50131L10.3028 3.7236L12.4695 8.05693L12.587 8.29195L12.8472 8.32847L17.5972 8.99514L17.6318 8.99999H17.6667C17.6672 8.99999 17.7181 9.00405 17.779 9.09041C17.8394 9.17597 17.8532 9.2677 17.8431 9.3186Z" fill="#FFD369" stroke="#FFD369"/>
<path d="M41.8431 9.3186L41.8334 9.36715V9.39931L41.79 9.42098L41.7342 9.47543L38.3175 12.8088L38.1286 12.9931L38.1742 13.2531L39.0071 18.0005C39.0407 18.2069 38.9178 18.3679 38.7718 18.4167H38.7715H38.7713H38.771H38.7707H38.7705H38.7702H38.7699H38.7697H38.7694H38.7691H38.7689H38.7686H38.7683H38.7681H38.7678H38.7675H38.7673H38.767H38.7668H38.7665H38.7662H38.766H38.7657H38.7655H38.7652H38.7649H38.7647H38.7644H38.7642H38.7639H38.7637H38.7634H38.7631H38.7629H38.7626H38.7624H38.7621H38.7619H38.7616H38.7614H38.7611H38.7609H38.7606H38.7604H38.7601H38.7599H38.7596H38.7594H38.7591H38.7589H38.7586H38.7584H38.7581H38.7579H38.7576H38.7574H38.7571H38.7569H38.7566H38.7564H38.7561H38.7559H38.7557H38.7554H38.7552H38.7549H38.7547H38.7544H38.7542H38.7539H38.7537H38.7534H38.7532H38.753H38.7527H38.7525H38.7522H38.752H38.7517H38.7515H38.7512H38.751H38.7508H38.7505H38.7503H38.75H38.7498H38.7495H38.7493H38.749H38.7488H38.7486H38.7483H38.7481H38.7478H38.7476H38.7473H38.7471H38.7468H38.7466H38.7464H38.7461H38.7459H38.7456H38.7454H38.7451H38.7449H38.7446H38.7444H38.7441H38.7439H38.7437H38.7434H38.7432H38.7429H38.7427H38.7424H38.7422H38.7419H38.7417H38.7414H38.7412H38.7409H38.7407H38.7404H38.7402H38.7399H38.7397H38.7394H38.7392H38.7389H38.7387H38.7384H38.7382H38.7379H38.7377H38.7374H38.7372H38.7369H38.7366H38.7364H38.7361H38.7359H38.7356H38.7354H38.7351H38.7348H38.7346H38.7343H38.7341H38.7338H38.7336H38.7333H38.733H38.7328H38.7325H38.7322H38.732H38.7317H38.7315H38.7312H38.7309H38.7307H38.7304H38.7301H38.7299H38.7296H38.7293H38.729H38.7288H38.7285H38.7282H38.728H38.7277H38.7274H38.7271H38.7269H38.7266H38.7263H38.726H38.7258H38.7255H38.7252H38.7249H38.7246H38.7244H38.7241H38.7238H38.7235H38.7232H38.7229H38.7227H38.7224H38.7221H38.7218H38.7215H38.7212H38.7209H38.7206H38.7203H38.7201H38.7198H38.7195H38.7192H38.7189H38.7186H38.7183H38.718H38.7177H38.7174H38.7171H38.7168H38.7165H38.7162H38.7159H38.7156H38.7152H38.7149H38.7146H38.7143H38.714H38.7137H38.7134H38.7131H38.7128H38.7124H38.7121H38.7118H38.7115H38.7112H38.7108H38.7105H38.7102H38.7099H38.7095H38.7092H38.7089H38.7086H38.7082H38.7079H38.7076H38.7072H38.7069H38.7065H38.7062H38.7059H38.7055H38.7052H38.7048H38.7045H38.7042H38.7038H38.7035H38.7031H38.7028H38.7024H38.7021H38.7017H38.7014H38.701H38.7006H38.7003H38.6999H38.6996H38.6992H38.6988H38.6985H38.6981H38.6977H38.6974H38.697H38.6966H38.6962H38.6959H38.6955H38.6951H38.6947H38.6944H38.694H38.6936H38.6932H38.6928H38.6924H38.692H38.6917H38.6913H38.6909H38.6905H38.6901H38.6897H38.6893H38.6889H38.6885H38.6881H38.6877H38.6873H38.6868H38.6864H38.686H38.6856H38.6852H38.6848H38.6844H38.6839H38.6835H38.6831H38.6827H38.6822H38.6818H38.6814H38.6809H38.6805H38.6801H38.6796H38.6792H38.6788H38.6783H38.6779H38.6774H38.677H38.6765H38.6761H38.6756H38.6752H38.6747H38.6743H38.6738H38.6733H38.6729H38.6724H38.6719H38.6715H38.671H38.6705H38.6701H38.6696H38.6691H38.6686H38.6681H38.6677H38.6672H38.6667C38.6235 18.4167 38.59 18.4166 38.5591 18.4156C38.5464 18.4152 38.5357 18.4147 38.5267 18.4141L38.484 18.3914L34.234 16.1414L34 16.0176L33.7661 16.1414L29.5161 18.3914L29.5042 18.3977L29.4928 18.4046C29.3537 18.488 29.155 18.4627 29.0237 18.2613C29.0075 18.2218 29.0012 18.1709 29.0002 18.0426L29.8258 13.3364L29.8714 13.0764L29.6825 12.8921L26.2685 9.56132C26.1322 9.42345 26.1328 9.24102 26.2702 9.10354L26.3276 9.04617L26.3482 9.0049C26.3625 9.00242 26.3847 8.99999 26.4167 8.99999H26.4516L26.4862 8.99514L31.2362 8.32847L31.5013 8.29126L31.6173 8.04997L33.6891 3.74061C33.8204 3.53747 34.02 3.51172 34.1594 3.5954L34.1759 3.60528L34.1931 3.61387C34.2456 3.64011 34.2586 3.65316 34.261 3.65554L34.2611 3.65563L34.2611 3.65571C34.2635 3.65808 34.2766 3.6711 34.3028 3.7236L34.7474 3.50131L34.3028 3.7236L36.4695 8.05693L36.587 8.29195L36.8472 8.32847L41.5972 8.99514L41.6318 8.99999H41.6667C41.6672 8.99999 41.7181 9.00405 41.779 9.09041C41.8394 9.17597 41.8532 9.2677 41.8431 9.3186Z" fill="#FFD369" stroke="#FFD369"/>
<path d="M65.8431 9.3186L65.8334 9.36715V9.39931L65.79 9.42098L65.7342 9.47543L62.3175 12.8088L62.1286 12.9931L62.1742 13.2531L63.0071 18.0005C63.0407 18.2069 62.9178 18.3679 62.7718 18.4167H62.7715H62.7713H62.771H62.7707H62.7705H62.7702H62.7699H62.7697H62.7694H62.7691H62.7689H62.7686H62.7683H62.7681H62.7678H62.7675H62.7673H62.767H62.7668H62.7665H62.7662H62.766H62.7657H62.7655H62.7652H62.7649H62.7647H62.7644H62.7642H62.7639H62.7637H62.7634H62.7631H62.7629H62.7626H62.7624H62.7621H62.7619H62.7616H62.7614H62.7611H62.7609H62.7606H62.7604H62.7601H62.7599H62.7596H62.7594H62.7591H62.7589H62.7586H62.7584H62.7581H62.7579H62.7576H62.7574H62.7571H62.7569H62.7566H62.7564H62.7561H62.7559H62.7557H62.7554H62.7552H62.7549H62.7547H62.7544H62.7542H62.7539H62.7537H62.7534H62.7532H62.753H62.7527H62.7525H62.7522H62.752H62.7517H62.7515H62.7512H62.751H62.7508H62.7505H62.7503H62.75H62.7498H62.7495H62.7493H62.749H62.7488H62.7486H62.7483H62.7481H62.7478H62.7476H62.7473H62.7471H62.7468H62.7466H62.7464H62.7461H62.7459H62.7456H62.7454H62.7451H62.7449H62.7446H62.7444H62.7441H62.7439H62.7437H62.7434H62.7432H62.7429H62.7427H62.7424H62.7422H62.7419H62.7417H62.7414H62.7412H62.7409H62.7407H62.7404H62.7402H62.7399H62.7397H62.7394H62.7392H62.7389H62.7387H62.7384H62.7382H62.7379H62.7377H62.7374H62.7372H62.7369H62.7366H62.7364H62.7361H62.7359H62.7356H62.7354H62.7351H62.7348H62.7346H62.7343H62.7341H62.7338H62.7336H62.7333H62.733H62.7328H62.7325H62.7322H62.732H62.7317H62.7315H62.7312H62.7309H62.7307H62.7304H62.7301H62.7299H62.7296H62.7293H62.729H62.7288H62.7285H62.7282H62.728H62.7277H62.7274H62.7271H62.7269H62.7266H62.7263H62.726H62.7258H62.7255H62.7252H62.7249H62.7246H62.7244H62.7241H62.7238H62.7235H62.7232H62.7229H62.7227H62.7224H62.7221H62.7218H62.7215H62.7212H62.7209H62.7206H62.7203H62.7201H62.7198H62.7195H62.7192H62.7189H62.7186H62.7183H62.718H62.7177H62.7174H62.7171H62.7168H62.7165H62.7162H62.7159H62.7156H62.7152H62.7149H62.7146H62.7143H62.714H62.7137H62.7134H62.7131H62.7128H62.7124H62.7121H62.7118H62.7115H62.7112H62.7108H62.7105H62.7102H62.7099H62.7095H62.7092H62.7089H62.7086H62.7082H62.7079H62.7076H62.7072H62.7069H62.7065H62.7062H62.7059H62.7055H62.7052H62.7048H62.7045H62.7042H62.7038H62.7035H62.7031H62.7028H62.7024H62.7021H62.7017H62.7014H62.701H62.7006H62.7003H62.6999H62.6996H62.6992H62.6988H62.6985H62.6981H62.6977H62.6974H62.697H62.6966H62.6962H62.6959H62.6955H62.6951H62.6947H62.6944H62.694H62.6936H62.6932H62.6928H62.6924H62.692H62.6917H62.6913H62.6909H62.6905H62.6901H62.6897H62.6893H62.6889H62.6885H62.6881H62.6877H62.6873H62.6868H62.6864H62.686H62.6856H62.6852H62.6848H62.6844H62.6839H62.6835H62.6831H62.6827H62.6822H62.6818H62.6814H62.6809H62.6805H62.6801H62.6796H62.6792H62.6788H62.6783H62.6779H62.6774H62.677H62.6765H62.6761H62.6756H62.6752H62.6747H62.6743H62.6738H62.6733H62.6729H62.6724H62.6719H62.6715H62.671H62.6705H62.6701H62.6696H62.6691H62.6686H62.6681H62.6677H62.6672H62.6667C62.6235 18.4167 62.59 18.4166 62.5591 18.4156C62.5464 18.4152 62.5357 18.4147 62.5267 18.4141L62.484 18.3914L58.234 16.1414L58 16.0176L57.7661 16.1414L53.5161 18.3914L53.5042 18.3977L53.4928 18.4046C53.3537 18.488 53.155 18.4627 53.0237 18.2613C53.0075 18.2218 53.0012 18.1709 53.0002 18.0426L53.8258 13.3364L53.8714 13.0764L53.6825 12.8921L50.2685 9.56132C50.1322 9.42345 50.1328 9.24102 50.2702 9.10354L50.3276 9.04617L50.3482 9.0049C50.3625 9.00242 50.3847 8.99999 50.4167 8.99999H50.4516L50.4862 8.99514L55.2362 8.32847L55.5013 8.29126L55.6173 8.04997L57.6891 3.74061C57.8204 3.53747 58.02 3.51172 58.1594 3.5954L58.1759 3.60528L58.1931 3.61387C58.2456 3.64011 58.2586 3.65316 58.261 3.65554L58.2611 3.65563L58.2611 3.65571C58.2635 3.65808 58.2766 3.6711 58.3028 3.7236L58.7474 3.50131L58.3028 3.7236L60.4695 8.05693L60.587 8.29195L60.8472 8.32847L65.5972 8.99514L65.6318 8.99999H65.6667C65.6672 8.99999 65.7181 9.00405 65.779 9.09041C65.8394 9.17597 65.8532 9.2677 65.8431 9.3186Z" fill="#FFD369" stroke="#FFD369"/>
<path d="M89.8431 9.3186L89.8334 9.36715V9.39931L89.79 9.42098L89.7342 9.47543L86.3175 12.8088L86.1286 12.9931L86.1742 13.2531L87.0071 18.0005C87.0407 18.2069 86.9178 18.3679 86.7718 18.4167H86.7715H86.7713H86.771H86.7707H86.7705H86.7702H86.7699H86.7697H86.7694H86.7691H86.7689H86.7686H86.7683H86.7681H86.7678H86.7675H86.7673H86.767H86.7668H86.7665H86.7662H86.766H86.7657H86.7655H86.7652H86.7649H86.7647H86.7644H86.7642H86.7639H86.7637H86.7634H86.7631H86.7629H86.7626H86.7624H86.7621H86.7619H86.7616H86.7614H86.7611H86.7609H86.7606H86.7604H86.7601H86.7599H86.7596H86.7594H86.7591H86.7589H86.7586H86.7584H86.7581H86.7579H86.7576H86.7574H86.7571H86.7569H86.7566H86.7564H86.7561H86.7559H86.7557H86.7554H86.7552H86.7549H86.7547H86.7544H86.7542H86.7539H86.7537H86.7534H86.7532H86.753H86.7527H86.7525H86.7522H86.752H86.7517H86.7515H86.7512H86.751H86.7508H86.7505H86.7503H86.75H86.7498H86.7495H86.7493H86.749H86.7488H86.7486H86.7483H86.7481H86.7478H86.7476H86.7473H86.7471H86.7468H86.7466H86.7464H86.7461H86.7459H86.7456H86.7454H86.7451H86.7449H86.7446H86.7444H86.7441H86.7439H86.7437H86.7434H86.7432H86.7429H86.7427H86.7424H86.7422H86.7419H86.7417H86.7414H86.7412H86.7409H86.7407H86.7404H86.7402H86.7399H86.7397H86.7394H86.7392H86.7389H86.7387H86.7384H86.7382H86.7379H86.7377H86.7374H86.7372H86.7369H86.7366H86.7364H86.7361H86.7359H86.7356H86.7354H86.7351H86.7348H86.7346H86.7343H86.7341H86.7338H86.7336H86.7333H86.733H86.7328H86.7325H86.7322H86.732H86.7317H86.7315H86.7312H86.7309H86.7307H86.7304H86.7301H86.7299H86.7296H86.7293H86.729H86.7288H86.7285H86.7282H86.728H86.7277H86.7274H86.7271H86.7269H86.7266H86.7263H86.726H86.7258H86.7255H86.7252H86.7249H86.7246H86.7244H86.7241H86.7238H86.7235H86.7232H86.7229H86.7227H86.7224H86.7221H86.7218H86.7215H86.7212H86.7209H86.7206H86.7203H86.7201H86.7198H86.7195H86.7192H86.7189H86.7186H86.7183H86.718H86.7177H86.7174H86.7171H86.7168H86.7165H86.7162H86.7159H86.7156H86.7152H86.7149H86.7146H86.7143H86.714H86.7137H86.7134H86.7131H86.7128H86.7124H86.7121H86.7118H86.7115H86.7112H86.7108H86.7105H86.7102H86.7099H86.7095H86.7092H86.7089H86.7086H86.7082H86.7079H86.7076H86.7072H86.7069H86.7065H86.7062H86.7059H86.7055H86.7052H86.7048H86.7045H86.7042H86.7038H86.7035H86.7031H86.7028H86.7024H86.7021H86.7017H86.7014H86.701H86.7006H86.7003H86.6999H86.6996H86.6992H86.6988H86.6985H86.6981H86.6977H86.6974H86.697H86.6966H86.6962H86.6959H86.6955H86.6951H86.6947H86.6944H86.694H86.6936H86.6932H86.6928H86.6924H86.692H86.6917H86.6913H86.6909H86.6905H86.6901H86.6897H86.6893H86.6889H86.6885H86.6881H86.6877H86.6873H86.6868H86.6864H86.686H86.6856H86.6852H86.6848H86.6844H86.6839H86.6835H86.6831H86.6827H86.6822H86.6818H86.6814H86.6809H86.6805H86.6801H86.6796H86.6792H86.6788H86.6783H86.6779H86.6774H86.677H86.6765H86.6761H86.6756H86.6752H86.6747H86.6743H86.6738H86.6733H86.6729H86.6724H86.6719H86.6715H86.671H86.6705H86.6701H86.6696H86.6691H86.6686H86.6681H86.6677H86.6672H86.6667C86.6235 18.4167 86.59 18.4166 86.5591 18.4156C86.5464 18.4152 86.5357 18.4147 86.5267 18.4141L86.484 18.3914L82.234 16.1414L82 16.0176L81.7661 16.1414L77.5161 18.3914L77.5042 18.3977L77.4928 18.4046C77.3537 18.488 77.155 18.4627 77.0237 18.2613C77.0075 18.2218 77.0012 18.1709 77.0002 18.0426L77.8258 13.3364L77.8714 13.0764L77.6825 12.8921L74.2685 9.56132C74.1322 9.42345 74.1328 9.24102 74.2702 9.10354L74.3276 9.04617L74.3482 9.0049C74.3625 9.00242 74.3847 8.99999 74.4167 8.99999H74.4516L74.4862 8.99514L79.2362 8.32847L79.5013 8.29126L79.6173 8.04997L81.6891 3.74061C81.8204 3.53747 82.02 3.51172 82.1594 3.5954L82.1759 3.60528L82.1931 3.61387C82.2456 3.64011 82.2586 3.65316 82.261 3.65554L82.2611 3.65563L82.2611 3.65571C82.2635 3.65808 82.2766 3.6711 82.3028 3.7236L82.7474 3.50131L82.3028 3.7236L84.4695 8.05693L84.587 8.29195L84.8472 8.32847L89.5972 8.99514L89.6318 8.99999H89.6667C89.6672 8.99999 89.7181 9.00405 89.779 9.09041C89.8394 9.17597 89.8532 9.2677 89.8431 9.3186Z" fill="#FFD369" stroke="#FFD369"/>
<path d="M112.01 9.4769L112 9.52544V9.52844L111.982 9.53761L111.926 9.59206L108.851 12.5921L108.662 12.7764L108.708 13.0364L109.457 17.3088C109.482 17.4655 109.392 17.5857 109.286 17.625H109.286H109.286H109.285H109.285H109.285H109.285H109.285H109.284H109.284H109.284H109.284H109.283H109.283H109.283H109.283H109.283H109.282H109.282H109.282H109.282H109.281H109.281H109.281H109.281H109.281H109.28H109.28H109.28H109.28H109.279H109.279H109.279H109.279H109.279H109.278H109.278H109.278H109.278H109.277H109.277H109.277H109.277H109.277H109.276H109.276H109.276H109.276H109.275H109.275H109.275H109.275H109.275H109.274H109.274H109.274H109.274H109.273H109.273H109.273H109.273H109.273H109.272H109.272H109.272H109.272H109.271H109.271H109.271H109.271H109.271H109.27H109.27H109.27H109.27H109.269H109.269H109.269H109.269H109.269H109.268H109.268H109.268H109.268H109.267H109.267H109.267H109.267H109.267H109.266H109.266H109.266H109.266H109.265H109.265H109.265H109.265H109.265H109.264H109.264H109.264H109.264H109.263H109.263H109.263H109.263H109.262H109.262H109.262H109.262H109.262H109.261H109.261H109.261H109.261H109.26H109.26H109.26H109.26H109.259H109.259H109.259H109.259H109.259H109.258H109.258H109.258H109.258H109.257H109.257H109.257H109.257H109.256H109.256H109.256H109.256H109.255H109.255H109.255H109.255H109.254H109.254H109.254H109.254H109.253H109.253H109.253H109.253H109.252H109.252H109.252H109.252H109.251H109.251H109.251H109.251H109.25H109.25H109.25H109.25H109.249H109.249H109.249H109.249H109.248H109.248H109.248H109.248H109.247H109.247H109.247H109.246H109.246H109.246H109.246H109.245H109.245H109.245H109.245H109.244H109.244H109.244H109.243H109.243H109.243H109.243H109.242H109.242H109.242H109.241H109.241H109.241H109.241H109.24H109.24H109.24H109.239H109.239H109.239H109.239H109.238H109.238H109.238H109.237H109.237H109.237H109.236H109.236H109.236H109.236H109.235H109.235H109.235H109.234H109.234H109.234H109.233H109.233H109.233H109.232H109.232H109.232H109.232H109.231H109.231H109.231H109.23H109.23H109.23H109.229H109.229H109.229H109.228H109.228H109.228H109.227H109.227H109.227H109.226H109.226H109.226H109.225H109.225H109.225H109.224H109.224H109.224H109.223H109.223H109.222H109.222H109.222H109.221H109.221H109.221H109.22H109.22H109.22H109.219H109.219H109.219H109.218H109.218H109.217H109.217H109.217H109.216H109.216H109.216H109.215H109.215H109.214H109.214H109.214H109.213H109.213H109.212H109.212H109.212H109.211H109.211H109.21H109.21H109.21H109.209H109.209H109.208H109.208H109.208H109.207H109.207H109.206H109.206H109.206H109.205H109.205H109.204H109.204H109.203H109.203H109.203H109.202H109.202H109.201H109.201H109.2H109.2C109.161 17.625 109.132 17.6249 109.105 17.624C109.099 17.6238 109.093 17.6236 109.088 17.6233L109.059 17.6081L105.234 15.5831L105 15.4592L104.766 15.5831L100.941 17.6081L100.929 17.6143L100.918 17.6212C100.855 17.6591 100.794 17.6631 100.737 17.646C100.681 17.629 100.616 17.5868 100.566 17.5117C100.556 17.486 100.551 17.4472 100.55 17.3424L101.292 13.1114L101.338 12.8514L101.149 12.6671L98.0769 9.66969C97.9738 9.56521 97.9744 9.43268 98.0786 9.32851L98.1359 9.27113L98.1461 9.25089C98.1542 9.25032 98.1638 9.24995 98.175 9.24995H98.2099L98.2445 9.2451L102.519 8.6451L102.785 8.60789L102.901 8.3666L104.764 4.49139C104.815 4.41431 104.88 4.3711 104.937 4.35387C104.994 4.33678 105.055 4.34081 105.118 4.3787L105.134 4.38858L105.151 4.39717C105.185 4.41384 105.197 4.42303 105.2 4.42537C105.202 4.42811 105.211 4.4402 105.228 4.47356L107.178 8.37356L107.295 8.60858L107.556 8.6451L111.831 9.2451L111.865 9.24995H111.895C111.9 9.25171 111.926 9.26184 111.96 9.31017C111.981 9.34007 111.997 9.37453 112.005 9.4077C112.013 9.44089 112.012 9.46442 112.01 9.4769Z" stroke="#FFD369"/>
<path d="M126.568 16L125.294 14.712C124.818 15.2067 124.309 15.5753 123.768 15.818C123.227 16.0513 122.615 16.168 121.934 16.168C121.262 16.168 120.665 16.0467 120.142 15.804C119.629 15.5613 119.227 15.216 118.938 14.768C118.658 14.32 118.518 13.7973 118.518 13.2C118.518 12.5187 118.709 11.9213 119.092 11.408C119.484 10.8853 120.058 10.4747 120.814 10.176C120.515 9.82133 120.301 9.49467 120.17 9.196C120.039 8.89733 119.974 8.57067 119.974 8.216C119.974 7.80533 120.077 7.43667 120.282 7.11C120.497 6.774 120.8 6.51267 121.192 6.326C121.584 6.13933 122.037 6.046 122.55 6.046C123.054 6.046 123.493 6.144 123.866 6.34C124.239 6.536 124.519 6.81133 124.706 7.166C124.893 7.51133 124.977 7.89867 124.958 8.328H123.684C123.693 7.94533 123.586 7.64667 123.362 7.432C123.138 7.208 122.849 7.096 122.494 7.096C122.121 7.096 121.817 7.20333 121.584 7.418C121.36 7.62333 121.248 7.88933 121.248 8.216C121.248 8.496 121.323 8.76667 121.472 9.028C121.631 9.28933 121.892 9.61133 122.256 9.994L125.168 12.92L125.42 12.528L126.372 10.932H127.744L126.596 12.92C126.437 13.2 126.251 13.494 126.036 13.802L128.234 16H126.568ZM121.934 15.076C122.438 15.076 122.891 14.978 123.292 14.782C123.703 14.586 124.09 14.2827 124.454 13.872L121.584 10.988C120.389 11.4453 119.792 12.1687 119.792 13.158C119.792 13.7087 119.988 14.166 120.38 14.53C120.781 14.894 121.299 15.076 121.934 15.076ZM134.406 6.242V12.416C134.406 13.284 134.616 13.928 135.036 14.348C135.465 14.768 136.058 14.978 136.814 14.978C137.561 14.978 138.144 14.768 138.564 14.348C138.993 13.928 139.208 13.284 139.208 12.416V6.242H140.482V12.402C140.482 13.214 140.319 13.9 139.992 14.46C139.665 15.0107 139.222 15.4213 138.662 15.692C138.111 15.9627 137.491 16.098 136.8 16.098C136.109 16.098 135.484 15.9627 134.924 15.692C134.373 15.4213 133.935 15.0107 133.608 14.46C133.291 13.9 133.132 13.214 133.132 12.402V6.242H134.406ZM143.881 9.742C144.133 9.30333 144.507 8.93933 145.001 8.65C145.505 8.35133 146.089 8.202 146.751 8.202C147.433 8.202 148.049 8.36533 148.599 8.692C149.159 9.01867 149.598 9.48067 149.915 10.078C150.233 10.666 150.391 11.352 150.391 12.136C150.391 12.9107 150.233 13.6013 149.915 14.208C149.598 14.8147 149.159 15.286 148.599 15.622C148.049 15.958 147.433 16.126 146.751 16.126C146.098 16.126 145.519 15.9813 145.015 15.692C144.521 15.3933 144.143 15.0247 143.881 14.586V19.64H142.607V8.328H143.881V9.742ZM149.089 12.136C149.089 11.5573 148.973 11.0533 148.739 10.624C148.506 10.1947 148.189 9.868 147.787 9.644C147.395 9.42 146.961 9.308 146.485 9.308C146.019 9.308 145.585 9.42467 145.183 9.658C144.791 9.882 144.474 10.2133 144.231 10.652C143.998 11.0813 143.881 11.5807 143.881 12.15C143.881 12.7287 143.998 13.2373 144.231 13.676C144.474 14.1053 144.791 14.4367 145.183 14.67C145.585 14.894 146.019 15.006 146.485 15.006C146.961 15.006 147.395 14.894 147.787 14.67C148.189 14.4367 148.506 14.1053 148.739 13.676C148.973 13.2373 149.089 12.724 149.089 12.136Z" fill="#06D6A0"/>
</svg>
