<svg width="990" height="842" viewBox="0 0 990 842" fill="none" xmlns="http://www.w3.org/2000/svg">
<path fill-rule="evenodd" clip-rule="evenodd" d="M985.513 441.125L982.739 549.794L815.414 719.778L219.946 523.504L218.64 474.109L263.837 484.56L218.396 464.884L217.661 439.247L337.914 472.885L217.417 429.45L217.009 416.06L396.245 256.608L985.513 441.125Z" fill="#006633"/>
<path fill-rule="evenodd" clip-rule="evenodd" d="M258.697 438.513L218.64 474.11L519.434 570.858L258.697 438.513Z" fill="url(#paint0_linear_1856_9050)"/>
<path fill-rule="evenodd" clip-rule="evenodd" d="M257.718 403.65L217.661 439.247L518.536 536.078L257.718 403.65Z" fill="url(#paint1_linear_1856_9050)"/>
<path fill-rule="evenodd" clip-rule="evenodd" d="M985.513 441.125L982.739 549.794L815.414 719.778L818.433 609.476L985.513 441.125Z" fill="url(#paint2_linear_1856_9050)"/>
<path fill-rule="evenodd" clip-rule="evenodd" d="M818.433 609.476L217.009 416.061L217.417 429.45L425.125 500.644L217.661 439.248L218.396 464.884L263.837 484.56L218.64 474.11L219.946 523.505L815.414 719.778L818.433 609.476Z" fill="url(#paint3_linear_1856_9050)"/>
<path fill-rule="evenodd" clip-rule="evenodd" d="M985.513 440.88L690.92 348.948L396.245 256.608L306.504 336.375L217.009 416.387L517.884 512.891L818.514 609.476L902.055 525.382L985.513 440.88Z" fill="url(#paint4_linear_1856_9050)"/>
<path fill-rule="evenodd" clip-rule="evenodd" d="M911.273 435.492L677.132 362.093L442.991 288.613C430.509 299.799 403.424 303.718 382.865 296.778L330.408 343.642L277.951 390.506C298.836 397.201 305.852 411.815 293.451 423.163L531.671 499.583L769.81 576.002C781.558 564.327 808.235 560.245 829.12 566.94L878.069 517.953C894.386 501.624 910.702 485.295 927.019 468.966C906.378 462.434 899.199 447.575 910.702 436.308L911.273 435.492ZM770.299 412.468C745.066 405.108 718.447 403.849 692.633 408.794C668.53 412.244 645.9 422.464 627.367 438.268C611.948 452.964 607.869 469.374 613.661 484.07C619.454 498.766 635.281 511.748 659.592 519.586C684.997 527.182 711.845 528.61 737.911 523.75C761.802 520.251 784.148 509.836 802.198 493.786C817.291 478.845 821.288 462.271 815.496 447.575C809.703 432.879 794.121 419.979 770.055 412.468H770.299ZM595.55 398.344L500.752 368.462L406.279 338.58C404.828 338.099 403.286 337.96 401.772 338.172C400.258 338.385 398.814 338.943 397.55 339.804C393.634 343.315 389.392 346.744 385.966 350.255C384.089 351.888 385.15 354.011 388.168 354.99L482.804 385.035L577.439 414.999C578.878 415.5 580.417 415.644 581.924 415.416C583.431 415.188 584.86 414.597 586.087 413.693L597.427 403.079C599.14 401.364 598.161 399.242 595.224 398.344H595.55ZM561.857 431.899L433.12 391.077C432.119 390.738 431.053 390.636 430.006 390.777C428.959 390.919 427.958 391.301 427.083 391.894L418.925 398.997C417.701 400.14 418.435 401.609 420.393 402.262L549.293 443.085C550.275 443.398 551.316 443.48 552.335 443.324C553.354 443.168 554.323 442.779 555.167 442.187L563.325 434.92C564.549 433.777 563.896 432.389 561.857 431.736V431.899Z" fill="url(#paint5_linear_1856_9050)"/>
<path opacity="0.5" fill-rule="evenodd" clip-rule="evenodd" d="M929.548 515.259L817.78 633.398L565.609 546.365L818.025 624.254L929.548 515.259Z" fill="#1F3F37"/>
<path opacity="0.5" fill-rule="evenodd" clip-rule="evenodd" d="M867.79 613.15L817.046 660.341L644.663 608.578L816.883 668.505L867.79 613.15Z" fill="#1F3F37"/>
<path opacity="0.5" fill-rule="evenodd" clip-rule="evenodd" d="M837.115 662.056L816.312 687.284L435.241 558.367L816.556 679.364L837.115 662.056Z" fill="#1F3F37"/>
<path opacity="0.5" fill-rule="evenodd" clip-rule="evenodd" d="M724.368 569.226L694.183 603.109L533.384 513.055L724.368 569.226Z" fill="#1F3F37"/>
<path fill-rule="evenodd" clip-rule="evenodd" d="M287.006 268.855L173.525 336.784L436.057 455.74L287.006 268.855Z" fill="url(#paint6_linear_1856_9050)"/>
<path fill-rule="evenodd" clip-rule="evenodd" d="M286.109 240.852L172.628 308.78L435.159 427.654L286.109 240.852Z" fill="url(#paint7_linear_1856_9050)"/>
<path fill-rule="evenodd" clip-rule="evenodd" d="M284.804 200.519L171.404 268.447L433.854 387.321L284.804 200.519Z" fill="url(#paint8_linear_1856_9050)"/>
<path fill-rule="evenodd" clip-rule="evenodd" d="M920.247 333.763L916.984 443.656L695.244 592.413L173.852 346.581L173.525 336.784L303.731 393.935L173.362 329.762L172.628 308.78L265.142 348.296L172.383 300.779L171.404 268.447L351.375 346.418L171.078 260.12L170.344 236.361L397.224 100.423L920.247 333.763Z" fill="#427F32"/>
<path fill-rule="evenodd" clip-rule="evenodd" d="M920.247 333.763L694.999 474.11L695.244 592.413L916.984 443.656L920.247 333.763Z" fill="url(#paint9_linear_1856_9050)"/>
<path fill-rule="evenodd" clip-rule="evenodd" d="M694.999 474.11L170.344 236.361L171.078 260.12L351.375 346.418L171.404 268.448L172.383 300.779L265.142 348.296L172.628 308.78L173.362 329.763L303.731 393.935L173.525 336.784L173.852 346.581L695.244 592.413L694.999 474.11Z" fill="url(#paint10_linear_1856_9050)"/>
<path fill-rule="evenodd" clip-rule="evenodd" d="M920.247 333.763L659.184 217.175L397.224 100.423L283.825 168.433L170.344 236.769L432.794 355.235L694.999 474.11L807.664 403.977L920.247 333.763Z" fill="url(#paint11_linear_1856_9050)"/>
<path fill-rule="evenodd" clip-rule="evenodd" d="M848.455 320.945L640.747 228.605L433.283 135.53C423.715 140.276 413.254 142.948 402.584 143.37C391.914 143.792 381.275 141.955 371.362 137.98C349.172 151.206 326.982 164.596 304.791 177.904L238.302 217.828C256.576 225.992 258.616 240.525 242.789 250.078L450.905 344.214L658.858 438.35C668.377 433.46 678.842 430.694 689.532 430.243C700.222 429.792 710.883 431.667 720.779 435.737L786.779 394.915L852.861 354.093C834.586 345.928 832.547 331.232 848.21 321.435L848.455 320.945ZM716.455 285.021C692.419 275.393 666.45 271.589 640.665 273.918C614.616 275.222 589.228 282.574 566.507 295.39C546.356 307.8 536.648 322.904 537.382 337.192C538.116 351.48 549.13 365.36 570.015 374.912C593.991 384.771 619.991 388.692 645.805 386.342C671.868 385.018 697.25 377.549 719.881 364.543C740.032 352.133 749.577 336.947 748.925 322.578C748.272 308.208 737.259 294.574 716.292 285.021H716.455ZM547.58 254.568L464.366 217.175L381.071 179.618C379.649 178.971 378.105 178.636 376.543 178.636C374.981 178.636 373.437 178.971 372.015 179.618L357.249 188.518C354.883 189.906 355.291 192.028 357.901 193.253L441.278 230.646L524.492 268.121C525.9 268.767 527.43 269.101 528.979 269.101C530.528 269.101 532.058 268.767 533.466 268.121L548.233 259.14C550.517 257.752 550.272 255.629 547.58 254.486V254.568ZM503.444 283.062L390.371 232.116C388.385 231.299 386.157 231.299 384.171 232.116L374.055 238.157C372.586 239.056 372.831 240.525 374.626 241.342L487.78 292.288C488.729 292.716 489.758 292.937 490.799 292.937C491.84 292.937 492.868 292.716 493.817 292.288L503.852 286.164C505.402 285.185 505.32 283.797 503.852 282.899L503.444 283.062Z" fill="#9BEF66"/>
<path opacity="0.5" fill-rule="evenodd" clip-rule="evenodd" d="M789.471 429.531L694.999 485.213L324.779 320.291L694.999 492.316L789.471 429.531Z" fill="#1F3F37"/>
<path opacity="0.5" fill-rule="evenodd" clip-rule="evenodd" d="M852.697 403.569L694.999 499.992L611.867 465.619L694.999 506.931L852.697 403.569Z" fill="#1F3F37"/>
<path opacity="0.5" fill-rule="evenodd" clip-rule="evenodd" d="M742.235 502.767L695.08 530.036L504.994 445.371L695.08 536.65L742.235 502.767Z" fill="#1F3F37"/>
<path opacity="0.5" fill-rule="evenodd" clip-rule="evenodd" d="M799.261 508.4L695.162 574.696L562.999 515.585L695.162 580.492L799.261 508.4Z" fill="#1F3F37"/>
<path style="mix-blend-mode:multiply" fill-rule="evenodd" clip-rule="evenodd" d="M918.86 380.545L887.696 463.333L817.699 510.278L742.072 444.718L920.247 333.763L918.86 380.545Z" fill="url(#paint12_radial_1856_9050)"/>
<path style="mix-blend-mode:multiply" fill-rule="evenodd" clip-rule="evenodd" d="M817.698 510.279L887.696 463.333L887.369 512.238L817.698 510.279Z" fill="url(#paint13_radial_1856_9050)"/>
<path fill-rule="evenodd" clip-rule="evenodd" d="M696.631 233.993L474.319 374.095L385.558 333.845L610.725 195.702L696.631 233.993Z" fill="#E6E6E6"/>
<path fill-rule="evenodd" clip-rule="evenodd" d="M452.129 364.053L675.174 224.441L696.631 233.994L474.319 374.096L452.129 364.053ZM632.181 205.255L407.911 343.969L385.639 333.845L610.724 195.947L632.181 205.5V205.255Z" fill="#FF9933"/>
<path fill-rule="evenodd" clip-rule="evenodd" d="M217.172 193.987L258.208 168.351L339.219 243.708L217.172 193.987Z" fill="url(#paint14_linear_1856_9050)"/>
<path fill-rule="evenodd" clip-rule="evenodd" d="M218.559 238.157L259.594 212.521L340.524 287.878L218.559 238.157Z" fill="url(#paint15_linear_1856_9050)"/>
<path opacity="0.5" fill-rule="evenodd" clip-rule="evenodd" d="M219.375 265.672L260.41 240.035L366.63 323.394L219.375 265.672Z" fill="#1F3F37"/>
<path fill-rule="evenodd" clip-rule="evenodd" d="M896.833 385.525L987.552 313.596L941.948 307.146L896.833 385.525Z" fill="url(#paint16_linear_1856_9050)"/>
<path fill-rule="evenodd" clip-rule="evenodd" d="M897.812 336.212L988.531 264.283L942.927 257.833L897.812 336.212Z" fill="url(#paint17_linear_1856_9050)"/>
<path fill-rule="evenodd" clip-rule="evenodd" d="M216.601 173.25L217.009 188.925H217.253L272.729 211.949L217.172 193.987L218.314 232.197L310.339 270.815L218.559 238.157L219.13 258.813L357.819 317.434L219.374 265.671L219.945 285.756L790.45 505.543L986.9 346.826L987.552 313.596L921.879 361.767L987.716 304.779L988.531 264.283L932.321 303.554L988.695 255.139L989.102 234.565L241.402 158.309L216.601 173.25Z" fill="url(#paint18_linear_1856_9050)"/>
<path fill-rule="evenodd" clip-rule="evenodd" d="M216.601 173.25C405.708 252.282 597.29 323.748 791.347 387.649L790.205 505.543L220.272 285.756L219.701 265.672L358.39 317.434L219.701 258.732L219.048 238.157L310.91 270.815L218.314 232.197L217.172 193.988L272.729 212.276L217.253 189.252L216.845 173.577L216.601 173.25Z" fill="url(#paint19_radial_1856_9050)"/>
<path fill-rule="evenodd" clip-rule="evenodd" d="M791.511 387.648L989.103 234.564L988.695 255.139L932.322 303.554L988.532 264.283L987.716 304.779L921.879 361.767L987.553 313.596L986.9 346.826L790.45 505.543L791.511 387.648Z" fill="url(#paint20_linear_1856_9050)"/>
<path fill-rule="evenodd" clip-rule="evenodd" d="M240.749 145.98L217.009 161.085C401.561 250.123 593.345 323.295 790.287 379.81L990 221.338L944.396 214.888L240.749 145.98Z" fill="url(#paint21_linear_1856_9050)"/>
<path fill-rule="evenodd" clip-rule="evenodd" d="M218.885 145.817C394.976 250.189 587.501 323.873 788.247 363.726L987.145 205.009C791.348 174.964 604.198 105.648 425.451 0L218.885 145.817Z" fill="url(#paint22_linear_1856_9050)"/>
<path fill-rule="evenodd" clip-rule="evenodd" d="M457.839 39.5158C524.257 75.3258 592.682 107.275 662.774 135.203C740.788 163.928 820.647 187.358 901.81 205.336C887.941 216.195 895.609 228.849 918.86 233.177L860.692 279.387C841.357 294.818 821.859 310.167 802.442 325.598C779.273 320.7 749.414 325.598 735.545 336.294C653.962 316.074 573.653 291.019 495.041 261.262C423.494 232.161 353.559 199.238 285.538 162.636C299.814 152.349 297.367 136.346 280.561 126.712C300.712 112.506 320.781 98.1366 340.932 83.8488L401.466 40.8221C410.186 45.4807 419.965 47.7943 429.846 47.5367C439.728 47.2791 449.373 44.4591 457.839 39.3525V39.5158ZM543.582 107.199C564.712 116.996 576.786 130.876 579.397 145.654C582.007 160.431 574.991 176.107 557.125 189.497C536.571 203.695 512.605 212.151 487.698 213.99C462.249 216.957 436.467 213.243 412.887 203.213C391.513 193.252 380.254 178.72 378.215 163.044C376.175 147.368 385.068 131.284 403.261 118.14C423.505 104.707 446.965 96.9278 471.219 95.6056C495.945 93.339 520.842 97.384 543.582 107.362V107.199ZM637.075 189.578C667.587 200.356 698.588 210.969 730.568 220.358C762.549 229.748 796.324 238.32 830.343 246.321C833.607 247.056 834.749 248.934 832.628 250.567L819.819 260.691C816.906 262.446 813.426 263.002 810.111 262.242C776.091 254.078 742.724 245.913 710.336 235.953C677.948 225.992 647.355 215.786 616.843 204.928C613.824 203.866 613.172 201.744 615.211 200.192L628.183 190.395C629.527 189.608 631.028 189.127 632.579 188.985C634.13 188.844 635.693 189.047 637.157 189.578H637.075ZM595.55 219.297C637.102 234.102 679.933 247.9 724.042 260.691C726.163 261.344 726.897 262.732 725.51 263.793L716.699 270.57C715.749 271.129 714.695 271.49 713.601 271.63C712.508 271.771 711.397 271.688 710.336 271.386C666.282 258.486 623.424 244.607 581.763 229.748C579.723 229.094 579.315 227.543 580.62 226.563L589.431 219.869C590.351 219.342 591.373 219.018 592.429 218.92C593.484 218.821 594.548 218.95 595.55 219.297Z" fill="url(#paint23_linear_1856_9050)"/>
<path fill-rule="evenodd" clip-rule="evenodd" d="M546.601 298.329C514.512 287.062 482.695 274.843 451.149 261.671L453.107 375.973L547.416 411.897L546.601 298.329Z" fill="url(#paint24_linear_1856_9050)"/>
<path fill-rule="evenodd" clip-rule="evenodd" d="M522.942 289.757C523.268 327.476 523.567 365.169 523.839 402.834L547.416 411.897L546.601 298.329C538.606 295.553 530.61 292.832 522.615 290.165L522.942 289.757ZM476.685 384.709C476.141 346.935 475.597 309.188 475.053 271.468L451.149 261.671L453.107 375.973L476.685 385.117V384.709Z" fill="url(#paint25_linear_1856_9050)"/>
<path fill-rule="evenodd" clip-rule="evenodd" d="M451.149 261.671C482.64 274.788 514.457 287.008 546.601 298.329L748.027 147.613C716.373 137.163 684.964 125.678 653.8 113.159L451.149 261.671Z" fill="url(#paint26_linear_1856_9050)"/>
<path fill-rule="evenodd" clip-rule="evenodd" d="M475.053 270.815L677.132 122.467L654.126 113.404L451.149 261.671L475.053 271.468V270.815ZM546.601 298.329L748.027 147.613L723.552 139.449L522.942 289.185V289.756C530.937 292.696 538.932 295.417 546.927 297.921L546.601 298.329Z" fill="url(#paint27_linear_1856_9050)"/>
<path opacity="0.5" fill-rule="evenodd" clip-rule="evenodd" d="M572.952 324.047L791.429 397.283L920.247 300.452L791.347 404.222L572.952 324.047Z" fill="#1F3F37"/>
<path opacity="0.5" fill-rule="evenodd" clip-rule="evenodd" d="M697.283 393.772L791.103 429.859L844.784 384.791L791.184 423.817L697.283 393.772Z" fill="#1F3F37"/>
<path opacity="0.5" fill-rule="evenodd" clip-rule="evenodd" d="M624.512 392.139L790.939 449.861L906.378 361.604L790.858 456.474L624.512 392.139Z" fill="#1F3F37"/>
<path opacity="0.5" fill-rule="evenodd" clip-rule="evenodd" d="M735.137 458.598L790.613 481.622L833.852 444.8L790.695 476.56L735.137 458.598Z" fill="#1F3F37"/>
<path fill-rule="evenodd" clip-rule="evenodd" d="M178.828 225.502L172.791 255.384L364.917 324.129L178.828 225.502Z" fill="url(#paint28_linear_1856_9050)"/>
<path fill-rule="evenodd" clip-rule="evenodd" d="M131.674 230.319L125.718 260.201L317.763 328.946L131.674 230.319Z" fill="url(#paint29_linear_1856_9050)"/>
<path fill-rule="evenodd" clip-rule="evenodd" d="M196.042 223.788L178.828 225.503L287.985 290.083L169.039 226.482L131.674 230.32L210.319 277.429L119.844 231.544L100.836 233.504L100.102 253.67L494.225 831.795L505.565 839.796L596.448 823.794L683.659 494.848L196.042 223.788Z" fill="url(#paint30_linear_1856_9050)"/>
<path fill-rule="evenodd" clip-rule="evenodd" d="M100.835 233.504C266.23 321.517 429.068 412.414 589.35 506.197L683.659 494.766L195.797 223.788L178.583 225.503L287.822 290.083L169.038 226.482L131.674 230.32L210.319 277.592L119.844 231.544L100.835 233.504Z" fill="url(#paint31_linear_1856_9050)"/>
<path fill-rule="evenodd" clip-rule="evenodd" d="M589.431 506.278L505.565 839.796L596.448 823.793L683.659 494.848L589.431 506.278Z" fill="url(#paint32_linear_1856_9050)"/>
<path fill-rule="evenodd" clip-rule="evenodd" d="M92.4326 233.504C259.785 319.394 422.949 410.727 581.926 507.503L494.143 842.245L392.41 769.827L74.2397 323.068L92.2694 233.259L92.4326 233.504Z" fill="url(#paint33_linear_1856_9050)"/>
<path fill-rule="evenodd" clip-rule="evenodd" d="M79.1347 234.564C248.906 312.615 411.992 404.474 566.752 509.217L478.969 840.938C330.488 728.227 169.824 632.565 0 555.754L79.1347 234.564Z" fill="url(#paint34_linear_1856_9050)"/>
<path fill-rule="evenodd" clip-rule="evenodd" d="M380.255 391.404L475.053 378.913L392.982 333.273L299.325 345.683C326.519 360.543 353.496 375.783 380.255 391.404Z" fill="url(#paint35_linear_1856_9050)"/>
<path fill-rule="evenodd" clip-rule="evenodd" d="M319.966 357.032L413.459 344.622L392.982 333.273L299.325 345.683L319.966 357.032ZM454.495 367.401L360.43 379.974L380.255 391.404L475.053 378.913L454.495 367.401Z" fill="url(#paint36_linear_1856_9050)"/>
<path fill-rule="evenodd" clip-rule="evenodd" d="M124.086 284.613C189.352 317.271 254.618 349.929 319.231 386.097C383.844 422.266 447.152 462.026 510.46 502.849C504.423 525.709 512.989 553.468 529.631 564.817L503.933 661.811C495.775 693.979 486.964 726.391 478.316 758.641C462 746.966 443.807 756.273 437.525 779.215C375.441 736.352 313.357 694.55 249.886 656.749C186.415 618.947 122.373 586.208 57.1074 553.958C62.655 531.588 53.1098 506.686 35.896 498.522C44.0542 467.252 51.3966 435.737 59.1469 404.385C66.8972 373.034 74.7291 341.601 82.4794 310.249C99.8564 318.414 118.539 306.902 124.086 284.531V284.613ZM220.272 367.4C241.619 380.303 257.078 401.049 263.347 425.205C271.828 452.861 272.561 482.315 265.468 510.36C260.326 535.154 246.241 557.184 225.901 572.247C217.453 578.114 207.527 581.486 197.256 581.977C186.984 582.468 176.782 580.058 167.814 575.022C146.73 562.15 131.352 541.708 124.821 517.871C116.385 490.891 115.538 462.106 122.373 434.676C127.56 409.676 141.579 387.385 161.859 371.891C170.199 365.744 180.096 362.065 190.423 361.271C200.749 360.477 211.092 362.601 220.272 367.4ZM322.25 492.888C347.948 508.074 373.402 523.505 398.855 539.425C424.309 555.346 449.436 572.083 474.645 588.412C475.899 589.501 476.823 590.919 477.314 592.506C477.804 594.093 477.84 595.786 477.419 597.393C475.542 604.578 473.585 611.681 471.79 618.784C470.892 622.213 468.2 623.519 465.916 621.968C440.625 604.986 415.498 588.494 390.126 572.492C364.754 556.489 339.382 540.977 313.847 525.709C312.64 524.762 311.724 523.494 311.204 522.05C310.685 520.606 310.583 519.044 310.91 517.545L316.294 496.399C317.11 493.133 319.884 491.582 322.25 493.051V492.888ZM304.22 557.387C338.865 578.397 373.429 599.924 407.911 621.968C408.774 622.704 409.408 623.671 409.741 624.756C410.073 625.841 410.089 626.998 409.787 628.091C408.645 632.908 407.34 637.807 406.034 642.542C405.463 644.829 403.669 645.727 402.037 644.665C367.772 622.567 333.399 601.067 298.917 580.166C298.036 579.515 297.371 578.615 297.007 577.581C296.643 576.548 296.598 575.429 296.877 574.369L300.549 560C301.12 557.795 302.996 556.734 304.709 557.714L304.22 557.387Z" fill="url(#paint37_linear_1856_9050)"/>
<path fill-rule="evenodd" clip-rule="evenodd" d="M299.488 716.349L380.255 391.404C353.496 375.837 326.519 360.596 299.325 345.683L220.272 668.587C247.031 683.936 273.572 699.857 299.896 716.349H299.488Z" fill="url(#paint38_linear_1856_9050)"/>
<path fill-rule="evenodd" clip-rule="evenodd" d="M239.852 680.181C266.447 572.519 293.016 464.83 319.557 357.113L298.917 345.765L220.272 668.587C226.962 672.424 233.651 676.262 240.26 680.181H239.852ZM360.022 379.974C333.263 488.071 306.477 596.114 279.664 704.102L299.488 716.349L380.255 391.404L360.43 379.974H360.022Z" fill="url(#paint39_linear_1856_9050)"/>
<path opacity="0.5" fill-rule="evenodd" clip-rule="evenodd" d="M466.65 427.572L597.345 505.298L529.632 787.625L606.319 504.236L466.65 427.572Z" fill="#1F3F37"/>
<path opacity="0.5" fill-rule="evenodd" clip-rule="evenodd" d="M557.207 463.414L620.759 502.44L588.371 643.93L629.244 501.46L557.207 463.414Z" fill="#1F3F37"/>
<path opacity="0.5" fill-rule="evenodd" clip-rule="evenodd" d="M472.035 392.302L655.431 498.276L604.524 710.062L664.406 497.215L472.035 392.302Z" fill="#1F3F37"/>
<defs>
<linearGradient id="paint0_linear_1856_9050" x1="369.078" y1="570.858" x2="369.078" y2="438.513" gradientUnits="userSpaceOnUse">
<stop stop-color="#126619"/>
<stop offset="1" stop-color="#154522"/>
</linearGradient>
<linearGradient id="paint1_linear_1856_9050" x1="368.099" y1="536.078" x2="368.099" y2="403.65" gradientUnits="userSpaceOnUse">
<stop stop-color="#126619"/>
<stop offset="1" stop-color="#154522"/>
</linearGradient>
<linearGradient id="paint2_linear_1856_9050" x1="815.414" y1="580.492" x2="985.513" y2="580.492" gradientUnits="userSpaceOnUse">
<stop stop-color="#1A7321"/>
<stop offset="1" stop-color="#1E6624"/>
</linearGradient>
<linearGradient id="paint3_linear_1856_9050" x1="608.603" y1="567.919" x2="914.21" y2="567.919" gradientUnits="userSpaceOnUse">
<stop stop-color="#106615"/>
<stop offset="1" stop-color="#2C8A30"/>
</linearGradient>
<linearGradient id="paint4_linear_1856_9050" x1="217.009" y1="433.042" x2="985.513" y2="433.042" gradientUnits="userSpaceOnUse">
<stop stop-color="#51B850"/>
<stop offset="1" stop-color="#309631"/>
</linearGradient>
<linearGradient id="paint5_linear_1856_9050" x1="278.032" y1="432.389" x2="927.345" y2="432.389" gradientUnits="userSpaceOnUse">
<stop stop-color="#95EB88"/>
<stop offset="1" stop-color="#74D461"/>
</linearGradient>
<linearGradient id="paint6_linear_1856_9050" x1="304.791" y1="455.74" x2="304.791" y2="268.855" gradientUnits="userSpaceOnUse">
<stop stop-color="#126619"/>
<stop offset="1" stop-color="#154522"/>
</linearGradient>
<linearGradient id="paint7_linear_1856_9050" x1="303.894" y1="427.654" x2="303.894" y2="240.852" gradientUnits="userSpaceOnUse">
<stop stop-color="#126619"/>
<stop offset="1" stop-color="#154522"/>
</linearGradient>
<linearGradient id="paint8_linear_1856_9050" x1="302.588" y1="387.321" x2="302.588" y2="200.519" gradientUnits="userSpaceOnUse">
<stop stop-color="#126619"/>
<stop offset="1" stop-color="#154522"/>
</linearGradient>
<linearGradient id="paint9_linear_1856_9050" x1="694.999" y1="463.088" x2="920.247" y2="463.088" gradientUnits="userSpaceOnUse">
<stop stop-color="#277A2D"/>
<stop offset="1" stop-color="#216E27"/>
</linearGradient>
<linearGradient id="paint10_linear_1856_9050" x1="592.532" y1="414.346" x2="1117.43" y2="414.346" gradientUnits="userSpaceOnUse">
<stop stop-color="#106615"/>
<stop offset="1" stop-color="#2C8A30"/>
</linearGradient>
<linearGradient id="paint11_linear_1856_9050" x1="65.7554" y1="-8.24604" x2="1076.08" y2="608.871" gradientUnits="userSpaceOnUse">
<stop stop-color="#309631"/>
<stop offset="1" stop-color="#51B850"/>
</linearGradient>
<radialGradient id="paint12_radial_1856_9050" cx="0" cy="0" r="1" gradientUnits="userSpaceOnUse" gradientTransform="translate(863.14 285.021) scale(237.731 237.912)">
<stop stop-color="#00562F"/>
<stop offset="1" stop-color="white"/>
</radialGradient>
<radialGradient id="paint13_radial_1856_9050" cx="0" cy="0" r="1" gradientUnits="userSpaceOnUse" gradientTransform="translate(814.68 337.845) scale(217.824 217.991)">
<stop stop-color="#00562F"/>
<stop offset="1" stop-color="white"/>
</radialGradient>
<linearGradient id="paint14_linear_1856_9050" x1="217.172" y1="206.07" x2="339.219" y2="206.07" gradientUnits="userSpaceOnUse">
<stop stop-color="#126619"/>
<stop offset="1" stop-color="#154522"/>
</linearGradient>
<linearGradient id="paint15_linear_1856_9050" x1="218.477" y1="250.24" x2="340.524" y2="250.24" gradientUnits="userSpaceOnUse">
<stop stop-color="#126619"/>
<stop offset="1" stop-color="#154522"/>
</linearGradient>
<linearGradient id="paint16_linear_1856_9050" x1="896.833" y1="346.336" x2="987.552" y2="346.336" gradientUnits="userSpaceOnUse">
<stop stop-color="#154522"/>
<stop offset="1" stop-color="#126619"/>
</linearGradient>
<linearGradient id="paint17_linear_1856_9050" x1="897.812" y1="297.022" x2="988.531" y2="297.022" gradientUnits="userSpaceOnUse">
<stop stop-color="#154522"/>
<stop offset="1" stop-color="#126619"/>
</linearGradient>
<linearGradient id="paint18_linear_1856_9050" x1="602.811" y1="505.543" x2="602.811" y2="158.309" gradientUnits="userSpaceOnUse">
<stop stop-color="#25752C"/>
<stop offset="1" stop-color="#1C5C25"/>
</linearGradient>
<radialGradient id="paint19_radial_1856_9050" cx="0" cy="0" r="1" gradientUnits="userSpaceOnUse" gradientTransform="translate(225.656 475.335) scale(586.168 586.616)">
<stop stop-color="#206B26"/>
<stop offset="1" stop-color="#2A8230"/>
</radialGradient>
<linearGradient id="paint20_linear_1856_9050" x1="790.369" y1="370.094" x2="989.103" y2="370.094" gradientUnits="userSpaceOnUse">
<stop stop-color="#1A7321"/>
<stop offset="1" stop-color="#1E6624"/>
</linearGradient>
<linearGradient id="paint21_linear_1856_9050" x1="603.545" y1="379.81" x2="603.545" y2="145.98" gradientUnits="userSpaceOnUse">
<stop stop-color="#2C8A30"/>
<stop offset="1" stop-color="#227028"/>
</linearGradient>
<linearGradient id="paint22_linear_1856_9050" x1="218.885" y1="181.904" x2="987.226" y2="181.904" gradientUnits="userSpaceOnUse">
<stop stop-color="#309631"/>
<stop offset="1" stop-color="#51B850"/>
</linearGradient>
<linearGradient id="paint23_linear_1856_9050" x1="280.724" y1="187.864" x2="918.86" y2="187.864" gradientUnits="userSpaceOnUse">
<stop stop-color="#74D461"/>
<stop offset="1" stop-color="#95EB88"/>
</linearGradient>
<linearGradient id="paint24_linear_1856_9050" x1="449.518" y1="-16.8186" x2="506.874" y2="384.37" gradientUnits="userSpaceOnUse">
<stop stop-color="#D5DCEB"/>
<stop offset="0.38" stop-color="#C6CEE1"/>
<stop offset="1" stop-color="#A5AFCC"/>
</linearGradient>
<linearGradient id="paint25_linear_1856_9050" x1="533.711" y1="561.143" x2="465.651" y2="109.337" gradientUnits="userSpaceOnUse">
<stop stop-color="#82290C"/>
<stop offset="1" stop-color="#CC3300"/>
</linearGradient>
<linearGradient id="paint26_linear_1856_9050" x1="451.149" y1="205.744" x2="748.027" y2="205.744" gradientUnits="userSpaceOnUse">
<stop stop-color="#F8FAFF"/>
<stop offset="0.42" stop-color="#E9EFFC"/>
<stop offset="1" stop-color="#CDDBF7"/>
</linearGradient>
<linearGradient id="paint27_linear_1856_9050" x1="451.149" y1="205.744" x2="748.027" y2="205.744" gradientUnits="userSpaceOnUse">
<stop stop-color="#F25E2C"/>
<stop offset="1" stop-color="#CC3300"/>
</linearGradient>
<linearGradient id="paint28_linear_1856_9050" x1="172.791" y1="274.815" x2="364.917" y2="274.815" gradientUnits="userSpaceOnUse">
<stop stop-color="#126619"/>
<stop offset="1" stop-color="#154522"/>
</linearGradient>
<linearGradient id="paint29_linear_1856_9050" x1="125.718" y1="279.633" x2="317.844" y2="279.633" gradientUnits="userSpaceOnUse">
<stop stop-color="#126619"/>
<stop offset="1" stop-color="#154522"/>
</linearGradient>
<linearGradient id="paint30_linear_1856_9050" x1="100.102" y1="531.751" x2="683.659" y2="531.751" gradientUnits="userSpaceOnUse">
<stop stop-color="#1C5C25"/>
<stop offset="1" stop-color="#25752C"/>
</linearGradient>
<linearGradient id="paint31_linear_1856_9050" x1="100.835" y1="365.033" x2="683.659" y2="365.033" gradientUnits="userSpaceOnUse">
<stop stop-color="#247829"/>
<stop offset="1" stop-color="#2C8A30"/>
</linearGradient>
<linearGradient id="paint32_linear_1856_9050" x1="505.565" y1="667.363" x2="683.659" y2="667.363" gradientUnits="userSpaceOnUse">
<stop stop-color="#277A2D"/>
<stop offset="1" stop-color="#216E27"/>
</linearGradient>
<linearGradient id="paint33_linear_1856_9050" x1="74.4029" y1="537.711" x2="581.844" y2="537.711" gradientUnits="userSpaceOnUse">
<stop stop-color="#227028"/>
<stop offset="1" stop-color="#2C8A30"/>
</linearGradient>
<linearGradient id="paint34_linear_1856_9050" x1="0" y1="537.547" x2="566.752" y2="537.547" gradientUnits="userSpaceOnUse">
<stop stop-color="#309631"/>
<stop offset="1" stop-color="#51B850"/>
</linearGradient>
<linearGradient id="paint35_linear_1856_9050" x1="299.325" y1="362.339" x2="475.053" y2="362.339" gradientUnits="userSpaceOnUse">
<stop stop-color="#D5DCEB"/>
<stop offset="0.38" stop-color="#C6CEE1"/>
<stop offset="1" stop-color="#A5AFCC"/>
</linearGradient>
<linearGradient id="paint36_linear_1856_9050" x1="264.408" y1="410.428" x2="652.084" y2="258.607" gradientUnits="userSpaceOnUse">
<stop stop-color="#E99938"/>
<stop offset="1" stop-color="#E6332A"/>
</linearGradient>
<linearGradient id="paint37_linear_1856_9050" x1="35.9776" y1="531.914" x2="529.631" y2="531.914" gradientUnits="userSpaceOnUse">
<stop stop-color="#74D461"/>
<stop offset="1" stop-color="#95EB88"/>
</linearGradient>
<linearGradient id="paint38_linear_1856_9050" x1="292.309" y1="269.345" x2="307.016" y2="761.171" gradientUnits="userSpaceOnUse">
<stop stop-color="#F8FAFF"/>
<stop offset="0.42" stop-color="#E9EFFC"/>
<stop offset="1" stop-color="#CDDBF7"/>
</linearGradient>
<linearGradient id="paint39_linear_1856_9050" x1="283.58" y1="97.1571" x2="305.15" y2="661.564" gradientUnits="userSpaceOnUse">
<stop stop-color="#FFB217"/>
<stop offset="1" stop-color="#E99938"/>
</linearGradient>
</defs>
</svg>
