<svg width="18" height="19" viewBox="0 0 18 19" fill="none" xmlns="http://www.w3.org/2000/svg">
<path d="M16.95 18.5C14.8 18.5 12.7043 18.0207 10.663 17.062C8.621 16.104 6.81267 14.8373 5.238 13.262C3.66267 11.6873 2.396 9.879 1.438 7.837C0.479334 5.79567 0 3.7 0 1.55C0 1.25 0.0999999 1 0.3 0.8C0.5 0.6 0.75 0.5 1.05 0.5H5.1C5.33333 0.5 5.54167 0.575 5.725 0.725C5.90833 0.875 6.01667 1.06667 6.05 1.3L6.7 4.8C6.73333 5.03333 6.72933 5.24567 6.688 5.437C6.646 5.629 6.55 5.8 6.4 5.95L4 8.4C4.7 9.6 5.575 10.725 6.625 11.775C7.675 12.825 8.83333 13.7333 10.1 14.5L12.45 12.15C12.6 12 12.796 11.8873 13.038 11.812C13.2793 11.7373 13.5167 11.7167 13.75 11.75L17.2 12.45C17.4333 12.5 17.625 12.6123 17.775 12.787C17.925 12.9623 18 13.1667 18 13.4V17.45C18 17.75 17.9 18 17.7 18.2C17.5 18.4 17.25 18.5 16.95 18.5Z" fill="#667085"/>
</svg>
