<svg width="20" height="20" viewBox="0 0 20 20" fill="none" xmlns="http://www.w3.org/2000/svg">
<path d="M17.1621 7.05L12.9121 2.85L14.3121 1.45C14.6954 1.06667 15.1664 0.875 15.7251 0.875C16.2831 0.875 16.7537 1.06667 17.1371 1.45L18.5371 2.85C18.9204 3.23333 19.1204 3.696 19.1371 4.238C19.1537 4.77933 18.9704 5.24167 18.5871 5.625L17.1621 7.05ZM1.86206 19.125C1.57873 19.125 1.34139 19.029 1.15006 18.837C0.958061 18.6457 0.862061 18.4083 0.862061 18.125V15.3C0.862061 15.1667 0.887061 15.0377 0.937061 14.913C0.987061 14.7877 1.06206 14.675 1.16206 14.575L11.4621 4.275L15.7121 8.525L5.41206 18.825C5.31206 18.925 5.19973 19 5.07506 19.05C4.94973 19.1 4.82039 19.125 4.68706 19.125H1.86206Z" fill="#FFD369"/>
</svg>
