<svg width="20" height="25" viewBox="0 0 20 25" fill="none" xmlns="http://www.w3.org/2000/svg">
<path d="M10.0001 12.4999C10.6417 12.4999 11.1912 12.2713 11.6486 11.8139C12.1051 11.3574 12.3334 10.8083 12.3334 10.1666C12.3334 9.52492 12.1051 8.97542 11.6486 8.51809C11.1912 8.06153 10.6417 7.83325 10.0001 7.83325C9.35842 7.83325 8.8093 8.06153 8.35275 8.51809C7.89542 8.97542 7.66675 9.52492 7.66675 10.1666C7.66675 10.8083 7.89542 11.3574 8.35275 11.8139C8.8093 12.2713 9.35842 12.4999 10.0001 12.4999ZM10.0001 24.1666C6.86953 21.5027 4.53153 19.0282 2.98608 16.7431C1.43986 14.4588 0.666748 12.3444 0.666748 10.3999C0.666748 7.48325 1.60514 5.15964 3.48191 3.42909C5.35792 1.69853 7.53064 0.833252 10.0001 0.833252C12.4695 0.833252 14.6422 1.69853 16.5182 3.42909C18.395 5.15964 19.3334 7.48325 19.3334 10.3999C19.3334 12.3444 18.5607 14.4588 17.0152 16.7431C15.469 19.0282 13.1306 21.5027 10.0001 24.1666Z" fill="#667085"/>
</svg>
