<svg width="19" height="18" viewBox="0 0 19 18" fill="none" xmlns="http://www.w3.org/2000/svg">
<path d="M6.57671 18C6.31004 18 6.05571 17.95 5.81371 17.85C5.57238 17.75 5.36004 17.6083 5.17671 17.425L1.07671 13.325C0.893376 13.1417 0.751709 12.9293 0.651709 12.688C0.551709 12.446 0.501709 12.1917 0.501709 11.925V6.075C0.501709 5.80833 0.551709 5.554 0.651709 5.312C0.751709 5.07067 0.893376 4.85833 1.07671 4.675L5.17671 0.575C5.36004 0.391667 5.57238 0.25 5.81371 0.15C6.05571 0.0500001 6.31004 0 6.57671 0H12.4267C12.6934 0 12.9477 0.0500001 13.1897 0.15C13.431 0.25 13.6434 0.391667 13.8267 0.575L17.9267 4.675C18.11 4.85833 18.2517 5.07067 18.3517 5.312C18.4517 5.554 18.5017 5.80833 18.5017 6.075V11.925C18.5017 12.1917 18.4517 12.446 18.3517 12.688C18.2517 12.9293 18.11 13.1417 17.9267 13.325L13.8267 17.425C13.6434 17.6083 13.431 17.75 13.1897 17.85C12.9477 17.95 12.6934 18 12.4267 18H6.57671ZM9.50171 14C9.78504 14 10.0227 13.904 10.2147 13.712C10.406 13.5207 10.5017 13.2833 10.5017 13C10.5017 12.7167 10.406 12.479 10.2147 12.287C10.0227 12.0957 9.78504 12 9.50171 12C9.21838 12 8.98104 12.0957 8.78971 12.287C8.59771 12.479 8.50171 12.7167 8.50171 13C8.50171 13.2833 8.59771 13.5207 8.78971 13.712C8.98104 13.904 9.21838 14 9.50171 14ZM9.50171 10C9.78504 10 10.0227 9.904 10.2147 9.712C10.406 9.52067 10.5017 9.28333 10.5017 9V5C10.5017 4.71667 10.406 4.479 10.2147 4.287C10.0227 4.09567 9.78504 4 9.50171 4C9.21838 4 8.98104 4.09567 8.78971 4.287C8.59771 4.479 8.50171 4.71667 8.50171 5V9C8.50171 9.28333 8.59771 9.52067 8.78971 9.712C8.98104 9.904 9.21838 10 9.50171 10Z" fill="#E65D5D"/>
</svg>
