<svg width="18" height="18" viewBox="0 0 18 18" fill="none" xmlns="http://www.w3.org/2000/svg">
<path d="M16.1 17.5125L10.5 11.9125C10 12.3125 9.42501 12.6292 8.77501 12.8625C8.12501 13.0958 7.43335 13.2125 6.70001 13.2125C4.88335 13.2125 3.34601 12.5832 2.08801 11.3245C0.830012 10.0658 0.200679 8.52849 0.200012 6.71249C0.200012 4.89583 0.829346 3.35849 2.08801 2.10049C3.34668 0.842494 4.88401 0.213161 6.70001 0.212494C8.51668 0.212494 10.054 0.841827 11.312 2.10049C12.57 3.35916 13.1993 4.89649 13.2 6.71249C13.2 7.44583 13.0833 8.13749 12.85 8.78749C12.6167 9.43749 12.3 10.0125 11.9 10.5125L17.525 16.1375C17.7083 16.3208 17.8 16.5458 17.8 16.8125C17.8 17.0792 17.7 17.3125 17.5 17.5125C17.3167 17.6958 17.0833 17.7875 16.8 17.7875C16.5167 17.7875 16.2833 17.6958 16.1 17.5125ZM6.70001 11.2125C7.95001 11.2125 9.01268 10.7748 9.88801 9.89949C10.7633 9.02416 11.2007 7.96183 11.2 6.71249C11.2 5.46249 10.7623 4.39983 9.88701 3.52449C9.01168 2.64916 7.94935 2.21183 6.70001 2.21249C5.45001 2.21249 4.38735 2.65016 3.51201 3.52549C2.63668 4.40083 2.19935 5.46316 2.20001 6.71249C2.20001 7.96249 2.63768 9.02516 3.51301 9.90049C4.38835 10.7758 5.45068 11.2132 6.70001 11.2125Z" fill="#FFD369"/>
</svg>
